<?xml version="1.0" encoding="utf-8" standalone="no"?>
<!DOCTYPE svg PUBLIC "-//W3C//DTD SVG 1.1//EN"
  "http://www.w3.org/Graphics/SVG/1.1/DTD/svg11.dtd">
<!-- Created with matplotlib (http://matplotlib.org/) -->
<svg height="345.6pt" version="1.1" viewBox="0 0 460.8 345.6" width="460.8pt" xmlns="http://www.w3.org/2000/svg" xmlns:xlink="http://www.w3.org/1999/xlink">
 <defs>
  <style type="text/css">
*{stroke-linecap:butt;stroke-linejoin:round;}
  </style>
 </defs>
 <g id="figure_1">
  <g id="patch_1">
   <path d="M 0 345.6 
L 460.8 345.6 
L 460.8 0 
L 0 0 
z
" style="fill:#ffffff;"/>
  </g>
  <g id="axes_1">
   <g id="patch_2">
    <path d="M 57.6 307.584 
L 414.72 307.584 
L 414.72 41.472 
L 57.6 41.472 
z
" style="fill:#ffffff;"/>
   </g>
   <g id="matplotlib.axis_1">
    <g id="xtick_1">
     <g id="line2d_1">
      <path clip-path="url(#pa0e6a181fd)" d="M 73.832727 307.584 
L 73.832727 41.472 
" style="fill:none;stroke:#b0b0b0;stroke-linecap:square;stroke-width:0.8;"/>
     </g>
     <g id="line2d_2">
      <defs>
       <path d="M 0 0 
L 0 3.5 
" id="mec6c612621" style="stroke:#000000;stroke-width:0.8;"/>
      </defs>
      <g>
       <use style="stroke:#000000;stroke-width:0.8;" x="73.832727" xlink:href="#mec6c612621" y="307.584"/>
      </g>
     </g>
     <g id="text_1">
      <!-- 0.000 -->
      <defs>
       <path d="M 31.78125 66.40625 
Q 24.171875 66.40625 20.328125 58.90625 
Q 16.5 51.421875 16.5 36.375 
Q 16.5 21.390625 20.328125 13.890625 
Q 24.171875 6.390625 31.78125 6.390625 
Q 39.453125 6.390625 43.28125 13.890625 
Q 47.125 21.390625 47.125 36.375 
Q 47.125 51.421875 43.28125 58.90625 
Q 39.453125 66.40625 31.78125 66.40625 
z
M 31.78125 74.21875 
Q 44.046875 74.21875 50.515625 64.515625 
Q 56.984375 54.828125 56.984375 36.375 
Q 56.984375 17.96875 50.515625 8.265625 
Q 44.046875 -1.421875 31.78125 -1.421875 
Q 19.53125 -1.421875 13.0625 8.265625 
Q 6.59375 17.96875 6.59375 36.375 
Q 6.59375 54.828125 13.0625 64.515625 
Q 19.53125 74.21875 31.78125 74.21875 
z
" id="DejaVuSans-30"/>
       <path d="M 10.6875 12.40625 
L 21 12.40625 
L 21 0 
L 10.6875 0 
z
" id="DejaVuSans-2e"/>
      </defs>
      <g transform="translate(59.518665 322.182437)scale(0.1 -0.1)">
       <use xlink:href="#DejaVuSans-30"/>
       <use x="63.623047" xlink:href="#DejaVuSans-2e"/>
       <use x="95.410156" xlink:href="#DejaVuSans-30"/>
       <use x="159.033203" xlink:href="#DejaVuSans-30"/>
       <use x="222.65625" xlink:href="#DejaVuSans-30"/>
      </g>
     </g>
    </g>
    <g id="xtick_2">
     <g id="line2d_3">
      <path clip-path="url(#pa0e6a181fd)" d="M 138.763636 307.584 
L 138.763636 41.472 
" style="fill:none;stroke:#b0b0b0;stroke-linecap:square;stroke-width:0.8;"/>
     </g>
     <g id="line2d_4">
      <g>
       <use style="stroke:#000000;stroke-width:0.8;" x="138.763636" xlink:href="#mec6c612621" y="307.584"/>
      </g>
     </g>
     <g id="text_2">
      <!-- 0.002 -->
      <defs>
       <path d="M 19.1875 8.296875 
L 53.609375 8.296875 
L 53.609375 0 
L 7.328125 0 
L 7.328125 8.296875 
Q 12.9375 14.109375 22.625 23.890625 
Q 32.328125 33.6875 34.8125 36.53125 
Q 39.546875 41.84375 41.421875 45.53125 
Q 43.3125 49.21875 43.3125 52.78125 
Q 43.3125 58.59375 39.234375 62.25 
Q 35.15625 65.921875 28.609375 65.921875 
Q 23.96875 65.921875 18.8125 64.3125 
Q 13.671875 62.703125 7.8125 59.421875 
L 7.8125 69.390625 
Q 13.765625 71.78125 18.9375 73 
Q 24.125 74.21875 28.421875 74.21875 
Q 39.75 74.21875 46.484375 68.546875 
Q 53.21875 62.890625 53.21875 53.421875 
Q 53.21875 48.921875 51.53125 44.890625 
Q 49.859375 40.875 45.40625 35.40625 
Q 44.1875 33.984375 37.640625 27.21875 
Q 31.109375 20.453125 19.1875 8.296875 
z
" id="DejaVuSans-32"/>
      </defs>
      <g transform="translate(124.449574 322.182437)scale(0.1 -0.1)">
       <use xlink:href="#DejaVuSans-30"/>
       <use x="63.623047" xlink:href="#DejaVuSans-2e"/>
       <use x="95.410156" xlink:href="#DejaVuSans-30"/>
       <use x="159.033203" xlink:href="#DejaVuSans-30"/>
       <use x="222.65625" xlink:href="#DejaVuSans-32"/>
      </g>
     </g>
    </g>
    <g id="xtick_3">
     <g id="line2d_5">
      <path clip-path="url(#pa0e6a181fd)" d="M 203.694545 307.584 
L 203.694545 41.472 
" style="fill:none;stroke:#b0b0b0;stroke-linecap:square;stroke-width:0.8;"/>
     </g>
     <g id="line2d_6">
      <g>
       <use style="stroke:#000000;stroke-width:0.8;" x="203.694545" xlink:href="#mec6c612621" y="307.584"/>
      </g>
     </g>
     <g id="text_3">
      <!-- 0.004 -->
      <defs>
       <path d="M 37.796875 64.3125 
L 12.890625 25.390625 
L 37.796875 25.390625 
z
M 35.203125 72.90625 
L 47.609375 72.90625 
L 47.609375 25.390625 
L 58.015625 25.390625 
L 58.015625 17.1875 
L 47.609375 17.1875 
L 47.609375 0 
L 37.796875 0 
L 37.796875 17.1875 
L 4.890625 17.1875 
L 4.890625 26.703125 
z
" id="DejaVuSans-34"/>
      </defs>
      <g transform="translate(189.380483 322.182437)scale(0.1 -0.1)">
       <use xlink:href="#DejaVuSans-30"/>
       <use x="63.623047" xlink:href="#DejaVuSans-2e"/>
       <use x="95.410156" xlink:href="#DejaVuSans-30"/>
       <use x="159.033203" xlink:href="#DejaVuSans-30"/>
       <use x="222.65625" xlink:href="#DejaVuSans-34"/>
      </g>
     </g>
    </g>
    <g id="xtick_4">
     <g id="line2d_7">
      <path clip-path="url(#pa0e6a181fd)" d="M 268.625455 307.584 
L 268.625455 41.472 
" style="fill:none;stroke:#b0b0b0;stroke-linecap:square;stroke-width:0.8;"/>
     </g>
     <g id="line2d_8">
      <g>
       <use style="stroke:#000000;stroke-width:0.8;" x="268.625455" xlink:href="#mec6c612621" y="307.584"/>
      </g>
     </g>
     <g id="text_4">
      <!-- 0.006 -->
      <defs>
       <path d="M 33.015625 40.375 
Q 26.375 40.375 22.484375 35.828125 
Q 18.609375 31.296875 18.609375 23.390625 
Q 18.609375 15.53125 22.484375 10.953125 
Q 26.375 6.390625 33.015625 6.390625 
Q 39.65625 6.390625 43.53125 10.953125 
Q 47.40625 15.53125 47.40625 23.390625 
Q 47.40625 31.296875 43.53125 35.828125 
Q 39.65625 40.375 33.015625 40.375 
z
M 52.59375 71.296875 
L 52.59375 62.3125 
Q 48.875 64.0625 45.09375 64.984375 
Q 41.3125 65.921875 37.59375 65.921875 
Q 27.828125 65.921875 22.671875 59.328125 
Q 17.53125 52.734375 16.796875 39.40625 
Q 19.671875 43.65625 24.015625 45.921875 
Q 28.375 48.1875 33.59375 48.1875 
Q 44.578125 48.1875 50.953125 41.515625 
Q 57.328125 34.859375 57.328125 23.390625 
Q 57.328125 12.15625 50.6875 5.359375 
Q 44.046875 -1.421875 33.015625 -1.421875 
Q 20.359375 -1.421875 13.671875 8.265625 
Q 6.984375 17.96875 6.984375 36.375 
Q 6.984375 53.65625 15.1875 63.9375 
Q 23.390625 74.21875 37.203125 74.21875 
Q 40.921875 74.21875 44.703125 73.484375 
Q 48.484375 72.75 52.59375 71.296875 
z
" id="DejaVuSans-36"/>
      </defs>
      <g transform="translate(254.311392 322.182437)scale(0.1 -0.1)">
       <use xlink:href="#DejaVuSans-30"/>
       <use x="63.623047" xlink:href="#DejaVuSans-2e"/>
       <use x="95.410156" xlink:href="#DejaVuSans-30"/>
       <use x="159.033203" xlink:href="#DejaVuSans-30"/>
       <use x="222.65625" xlink:href="#DejaVuSans-36"/>
      </g>
     </g>
    </g>
    <g id="xtick_5">
     <g id="line2d_9">
      <path clip-path="url(#pa0e6a181fd)" d="M 333.556364 307.584 
L 333.556364 41.472 
" style="fill:none;stroke:#b0b0b0;stroke-linecap:square;stroke-width:0.8;"/>
     </g>
     <g id="line2d_10">
      <g>
       <use style="stroke:#000000;stroke-width:0.8;" x="333.556364" xlink:href="#mec6c612621" y="307.584"/>
      </g>
     </g>
     <g id="text_5">
      <!-- 0.008 -->
      <defs>
       <path d="M 31.78125 34.625 
Q 24.75 34.625 20.71875 30.859375 
Q 16.703125 27.09375 16.703125 20.515625 
Q 16.703125 13.921875 20.71875 10.15625 
Q 24.75 6.390625 31.78125 6.390625 
Q 38.8125 6.390625 42.859375 10.171875 
Q 46.921875 13.96875 46.921875 20.515625 
Q 46.921875 27.09375 42.890625 30.859375 
Q 38.875 34.625 31.78125 34.625 
z
M 21.921875 38.8125 
Q 15.578125 40.375 12.03125 44.71875 
Q 8.5 49.078125 8.5 55.328125 
Q 8.5 64.0625 14.71875 69.140625 
Q 20.953125 74.21875 31.78125 74.21875 
Q 42.671875 74.21875 48.875 69.140625 
Q 55.078125 64.0625 55.078125 55.328125 
Q 55.078125 49.078125 51.53125 44.71875 
Q 48 40.375 41.703125 38.8125 
Q 48.828125 37.15625 52.796875 32.3125 
Q 56.78125 27.484375 56.78125 20.515625 
Q 56.78125 9.90625 50.3125 4.234375 
Q 43.84375 -1.421875 31.78125 -1.421875 
Q 19.734375 -1.421875 13.25 4.234375 
Q 6.78125 9.90625 6.78125 20.515625 
Q 6.78125 27.484375 10.78125 32.3125 
Q 14.796875 37.15625 21.921875 38.8125 
z
M 18.3125 54.390625 
Q 18.3125 48.734375 21.84375 45.5625 
Q 25.390625 42.390625 31.78125 42.390625 
Q 38.140625 42.390625 41.71875 45.5625 
Q 45.3125 48.734375 45.3125 54.390625 
Q 45.3125 60.0625 41.71875 63.234375 
Q 38.140625 66.40625 31.78125 66.40625 
Q 25.390625 66.40625 21.84375 63.234375 
Q 18.3125 60.0625 18.3125 54.390625 
z
" id="DejaVuSans-38"/>
      </defs>
      <g transform="translate(319.242301 322.182437)scale(0.1 -0.1)">
       <use xlink:href="#DejaVuSans-30"/>
       <use x="63.623047" xlink:href="#DejaVuSans-2e"/>
       <use x="95.410156" xlink:href="#DejaVuSans-30"/>
       <use x="159.033203" xlink:href="#DejaVuSans-30"/>
       <use x="222.65625" xlink:href="#DejaVuSans-38"/>
      </g>
     </g>
    </g>
    <g id="xtick_6">
     <g id="line2d_11">
      <path clip-path="url(#pa0e6a181fd)" d="M 398.487273 307.584 
L 398.487273 41.472 
" style="fill:none;stroke:#b0b0b0;stroke-linecap:square;stroke-width:0.8;"/>
     </g>
     <g id="line2d_12">
      <g>
       <use style="stroke:#000000;stroke-width:0.8;" x="398.487273" xlink:href="#mec6c612621" y="307.584"/>
      </g>
     </g>
     <g id="text_6">
      <!-- 0.010 -->
      <defs>
       <path d="M 12.40625 8.296875 
L 28.515625 8.296875 
L 28.515625 63.921875 
L 10.984375 60.40625 
L 10.984375 69.390625 
L 28.421875 72.90625 
L 38.28125 72.90625 
L 38.28125 8.296875 
L 54.390625 8.296875 
L 54.390625 0 
L 12.40625 0 
z
" id="DejaVuSans-31"/>
      </defs>
      <g transform="translate(384.17321 322.182437)scale(0.1 -0.1)">
       <use xlink:href="#DejaVuSans-30"/>
       <use x="63.623047" xlink:href="#DejaVuSans-2e"/>
       <use x="95.410156" xlink:href="#DejaVuSans-30"/>
       <use x="159.033203" xlink:href="#DejaVuSans-31"/>
       <use x="222.65625" xlink:href="#DejaVuSans-30"/>
      </g>
     </g>
    </g>
    <g id="text_7">
     <!-- Time (s) -->
     <defs>
      <path d="M -0.296875 72.90625 
L 61.375 72.90625 
L 61.375 64.59375 
L 35.5 64.59375 
L 35.5 0 
L 25.59375 0 
L 25.59375 64.59375 
L -0.296875 64.59375 
z
" id="DejaVuSans-54"/>
      <path d="M 9.421875 54.6875 
L 18.40625 54.6875 
L 18.40625 0 
L 9.421875 0 
z
M 9.421875 75.984375 
L 18.40625 75.984375 
L 18.40625 64.59375 
L 9.421875 64.59375 
z
" id="DejaVuSans-69"/>
      <path d="M 52 44.1875 
Q 55.375 50.25 60.0625 53.125 
Q 64.75 56 71.09375 56 
Q 79.640625 56 84.28125 50.015625 
Q 88.921875 44.046875 88.921875 33.015625 
L 88.921875 0 
L 79.890625 0 
L 79.890625 32.71875 
Q 79.890625 40.578125 77.09375 44.375 
Q 74.3125 48.1875 68.609375 48.1875 
Q 61.625 48.1875 57.5625 43.546875 
Q 53.515625 38.921875 53.515625 30.90625 
L 53.515625 0 
L 44.484375 0 
L 44.484375 32.71875 
Q 44.484375 40.625 41.703125 44.40625 
Q 38.921875 48.1875 33.109375 48.1875 
Q 26.21875 48.1875 22.15625 43.53125 
Q 18.109375 38.875 18.109375 30.90625 
L 18.109375 0 
L 9.078125 0 
L 9.078125 54.6875 
L 18.109375 54.6875 
L 18.109375 46.1875 
Q 21.1875 51.21875 25.484375 53.609375 
Q 29.78125 56 35.6875 56 
Q 41.65625 56 45.828125 52.96875 
Q 50 49.953125 52 44.1875 
z
" id="DejaVuSans-6d"/>
      <path d="M 56.203125 29.59375 
L 56.203125 25.203125 
L 14.890625 25.203125 
Q 15.484375 15.921875 20.484375 11.0625 
Q 25.484375 6.203125 34.421875 6.203125 
Q 39.59375 6.203125 44.453125 7.46875 
Q 49.3125 8.734375 54.109375 11.28125 
L 54.109375 2.78125 
Q 49.265625 0.734375 44.1875 -0.34375 
Q 39.109375 -1.421875 33.890625 -1.421875 
Q 20.796875 -1.421875 13.15625 6.1875 
Q 5.515625 13.8125 5.515625 26.8125 
Q 5.515625 40.234375 12.765625 48.109375 
Q 20.015625 56 32.328125 56 
Q 43.359375 56 49.78125 48.890625 
Q 56.203125 41.796875 56.203125 29.59375 
z
M 47.21875 32.234375 
Q 47.125 39.59375 43.09375 43.984375 
Q 39.0625 48.390625 32.421875 48.390625 
Q 24.90625 48.390625 20.390625 44.140625 
Q 15.875 39.890625 15.1875 32.171875 
z
" id="DejaVuSans-65"/>
      <path id="DejaVuSans-20"/>
      <path d="M 31 75.875 
Q 24.46875 64.65625 21.28125 53.65625 
Q 18.109375 42.671875 18.109375 31.390625 
Q 18.109375 20.125 21.3125 9.0625 
Q 24.515625 -2 31 -13.1875 
L 23.1875 -13.1875 
Q 15.875 -1.703125 12.234375 9.375 
Q 8.59375 20.453125 8.59375 31.390625 
Q 8.59375 42.28125 12.203125 53.3125 
Q 15.828125 64.359375 23.1875 75.875 
z
" id="DejaVuSans-28"/>
      <path d="M 44.28125 53.078125 
L 44.28125 44.578125 
Q 40.484375 46.53125 36.375 47.5 
Q 32.28125 48.484375 27.875 48.484375 
Q 21.1875 48.484375 17.84375 46.4375 
Q 14.5 44.390625 14.5 40.28125 
Q 14.5 37.15625 16.890625 35.375 
Q 19.28125 33.59375 26.515625 31.984375 
L 29.59375 31.296875 
Q 39.15625 29.25 43.1875 25.515625 
Q 47.21875 21.78125 47.21875 15.09375 
Q 47.21875 7.46875 41.1875 3.015625 
Q 35.15625 -1.421875 24.609375 -1.421875 
Q 20.21875 -1.421875 15.453125 -0.5625 
Q 10.6875 0.296875 5.421875 2 
L 5.421875 11.28125 
Q 10.40625 8.6875 15.234375 7.390625 
Q 20.0625 6.109375 24.8125 6.109375 
Q 31.15625 6.109375 34.5625 8.28125 
Q 37.984375 10.453125 37.984375 14.40625 
Q 37.984375 18.0625 35.515625 20.015625 
Q 33.0625 21.96875 24.703125 23.78125 
L 21.578125 24.515625 
Q 13.234375 26.265625 9.515625 29.90625 
Q 5.8125 33.546875 5.8125 39.890625 
Q 5.8125 47.609375 11.28125 51.796875 
Q 16.75 56 26.8125 56 
Q 31.78125 56 36.171875 55.265625 
Q 40.578125 54.546875 44.28125 53.078125 
z
" id="DejaVuSans-73"/>
      <path d="M 8.015625 75.875 
L 15.828125 75.875 
Q 23.140625 64.359375 26.78125 53.3125 
Q 30.421875 42.28125 30.421875 31.390625 
Q 30.421875 20.453125 26.78125 9.375 
Q 23.140625 -1.703125 15.828125 -13.1875 
L 8.015625 -13.1875 
Q 14.5 -2 17.703125 9.0625 
Q 20.90625 20.125 20.90625 31.390625 
Q 20.90625 42.671875 17.703125 53.65625 
Q 14.5 64.65625 8.015625 75.875 
z
" id="DejaVuSans-29"/>
     </defs>
     <g transform="translate(215.677188 335.860562)scale(0.1 -0.1)">
      <use xlink:href="#DejaVuSans-54"/>
      <use x="61.037109" xlink:href="#DejaVuSans-69"/>
      <use x="88.820312" xlink:href="#DejaVuSans-6d"/>
      <use x="186.232422" xlink:href="#DejaVuSans-65"/>
      <use x="247.755859" xlink:href="#DejaVuSans-20"/>
      <use x="279.542969" xlink:href="#DejaVuSans-28"/>
      <use x="318.556641" xlink:href="#DejaVuSans-73"/>
      <use x="370.65625" xlink:href="#DejaVuSans-29"/>
     </g>
    </g>
   </g>
   <g id="matplotlib.axis_2">
    <g id="ytick_1">
     <g id="line2d_13">
      <path clip-path="url(#pa0e6a181fd)" d="M 57.6 296.93262 
L 414.72 296.93262 
" style="fill:none;stroke:#b0b0b0;stroke-linecap:square;stroke-width:0.8;"/>
     </g>
     <g id="line2d_14">
      <defs>
       <path d="M 0 0 
L -3.5 0 
" id="m7ca676c6ec" style="stroke:#000000;stroke-width:0.8;"/>
      </defs>
      <g>
       <use style="stroke:#000000;stroke-width:0.8;" x="57.6" xlink:href="#m7ca676c6ec" y="296.93262"/>
      </g>
     </g>
     <g id="text_8">
      <!-- −2.0 -->
      <defs>
       <path d="M 10.59375 35.5 
L 73.1875 35.5 
L 73.1875 27.203125 
L 10.59375 27.203125 
z
" id="DejaVuSans-2212"/>
      </defs>
      <g transform="translate(26.317187 300.731838)scale(0.1 -0.1)">
       <use xlink:href="#DejaVuSans-2212"/>
       <use x="83.789062" xlink:href="#DejaVuSans-32"/>
       <use x="147.412109" xlink:href="#DejaVuSans-2e"/>
       <use x="179.199219" xlink:href="#DejaVuSans-30"/>
      </g>
     </g>
    </g>
    <g id="ytick_2">
     <g id="line2d_15">
      <path clip-path="url(#pa0e6a181fd)" d="M 57.6 266.380103 
L 414.72 266.380103 
" style="fill:none;stroke:#b0b0b0;stroke-linecap:square;stroke-width:0.8;"/>
     </g>
     <g id="line2d_16">
      <g>
       <use style="stroke:#000000;stroke-width:0.8;" x="57.6" xlink:href="#m7ca676c6ec" y="266.380103"/>
      </g>
     </g>
     <g id="text_9">
      <!-- −1.5 -->
      <defs>
       <path d="M 10.796875 72.90625 
L 49.515625 72.90625 
L 49.515625 64.59375 
L 19.828125 64.59375 
L 19.828125 46.734375 
Q 21.96875 47.46875 24.109375 47.828125 
Q 26.265625 48.1875 28.421875 48.1875 
Q 40.625 48.1875 47.75 41.5 
Q 54.890625 34.8125 54.890625 23.390625 
Q 54.890625 11.625 47.5625 5.09375 
Q 40.234375 -1.421875 26.90625 -1.421875 
Q 22.3125 -1.421875 17.546875 -0.640625 
Q 12.796875 0.140625 7.71875 1.703125 
L 7.71875 11.625 
Q 12.109375 9.234375 16.796875 8.0625 
Q 21.484375 6.890625 26.703125 6.890625 
Q 35.15625 6.890625 40.078125 11.328125 
Q 45.015625 15.765625 45.015625 23.390625 
Q 45.015625 31 40.078125 35.4375 
Q 35.15625 39.890625 26.703125 39.890625 
Q 22.75 39.890625 18.8125 39.015625 
Q 14.890625 38.140625 10.796875 36.28125 
z
" id="DejaVuSans-35"/>
      </defs>
      <g transform="translate(26.317187 270.179322)scale(0.1 -0.1)">
       <use xlink:href="#DejaVuSans-2212"/>
       <use x="83.789062" xlink:href="#DejaVuSans-31"/>
       <use x="147.412109" xlink:href="#DejaVuSans-2e"/>
       <use x="179.199219" xlink:href="#DejaVuSans-35"/>
      </g>
     </g>
    </g>
    <g id="ytick_3">
     <g id="line2d_17">
      <path clip-path="url(#pa0e6a181fd)" d="M 57.6 235.827587 
L 414.72 235.827587 
" style="fill:none;stroke:#b0b0b0;stroke-linecap:square;stroke-width:0.8;"/>
     </g>
     <g id="line2d_18">
      <g>
       <use style="stroke:#000000;stroke-width:0.8;" x="57.6" xlink:href="#m7ca676c6ec" y="235.827587"/>
      </g>
     </g>
     <g id="text_10">
      <!-- −1.0 -->
      <g transform="translate(26.317187 239.626805)scale(0.1 -0.1)">
       <use xlink:href="#DejaVuSans-2212"/>
       <use x="83.789062" xlink:href="#DejaVuSans-31"/>
       <use x="147.412109" xlink:href="#DejaVuSans-2e"/>
       <use x="179.199219" xlink:href="#DejaVuSans-30"/>
      </g>
     </g>
    </g>
    <g id="ytick_4">
     <g id="line2d_19">
      <path clip-path="url(#pa0e6a181fd)" d="M 57.6 205.27507 
L 414.72 205.27507 
" style="fill:none;stroke:#b0b0b0;stroke-linecap:square;stroke-width:0.8;"/>
     </g>
     <g id="line2d_20">
      <g>
       <use style="stroke:#000000;stroke-width:0.8;" x="57.6" xlink:href="#m7ca676c6ec" y="205.27507"/>
      </g>
     </g>
     <g id="text_11">
      <!-- −0.5 -->
      <g transform="translate(26.317187 209.074289)scale(0.1 -0.1)">
       <use xlink:href="#DejaVuSans-2212"/>
       <use x="83.789062" xlink:href="#DejaVuSans-30"/>
       <use x="147.412109" xlink:href="#DejaVuSans-2e"/>
       <use x="179.199219" xlink:href="#DejaVuSans-35"/>
      </g>
     </g>
    </g>
    <g id="ytick_5">
     <g id="line2d_21">
      <path clip-path="url(#pa0e6a181fd)" d="M 57.6 174.722554 
L 414.72 174.722554 
" style="fill:none;stroke:#b0b0b0;stroke-linecap:square;stroke-width:0.8;"/>
     </g>
     <g id="line2d_22">
      <g>
       <use style="stroke:#000000;stroke-width:0.8;" x="57.6" xlink:href="#m7ca676c6ec" y="174.722554"/>
      </g>
     </g>
     <g id="text_12">
      <!-- 0.0 -->
      <g transform="translate(34.696875 178.521772)scale(0.1 -0.1)">
       <use xlink:href="#DejaVuSans-30"/>
       <use x="63.623047" xlink:href="#DejaVuSans-2e"/>
       <use x="95.410156" xlink:href="#DejaVuSans-30"/>
      </g>
     </g>
    </g>
    <g id="ytick_6">
     <g id="line2d_23">
      <path clip-path="url(#pa0e6a181fd)" d="M 57.6 144.170037 
L 414.72 144.170037 
" style="fill:none;stroke:#b0b0b0;stroke-linecap:square;stroke-width:0.8;"/>
     </g>
     <g id="line2d_24">
      <g>
       <use style="stroke:#000000;stroke-width:0.8;" x="57.6" xlink:href="#m7ca676c6ec" y="144.170037"/>
      </g>
     </g>
     <g id="text_13">
      <!-- 0.5 -->
      <g transform="translate(34.696875 147.969256)scale(0.1 -0.1)">
       <use xlink:href="#DejaVuSans-30"/>
       <use x="63.623047" xlink:href="#DejaVuSans-2e"/>
       <use x="95.410156" xlink:href="#DejaVuSans-35"/>
      </g>
     </g>
    </g>
    <g id="ytick_7">
     <g id="line2d_25">
      <path clip-path="url(#pa0e6a181fd)" d="M 57.6 113.617521 
L 414.72 113.617521 
" style="fill:none;stroke:#b0b0b0;stroke-linecap:square;stroke-width:0.8;"/>
     </g>
     <g id="line2d_26">
      <g>
       <use style="stroke:#000000;stroke-width:0.8;" x="57.6" xlink:href="#m7ca676c6ec" y="113.617521"/>
      </g>
     </g>
     <g id="text_14">
      <!-- 1.0 -->
      <g transform="translate(34.696875 117.41674)scale(0.1 -0.1)">
       <use xlink:href="#DejaVuSans-31"/>
       <use x="63.623047" xlink:href="#DejaVuSans-2e"/>
       <use x="95.410156" xlink:href="#DejaVuSans-30"/>
      </g>
     </g>
    </g>
    <g id="ytick_8">
     <g id="line2d_27">
      <path clip-path="url(#pa0e6a181fd)" d="M 57.6 83.065004 
L 414.72 83.065004 
" style="fill:none;stroke:#b0b0b0;stroke-linecap:square;stroke-width:0.8;"/>
     </g>
     <g id="line2d_28">
      <g>
       <use style="stroke:#000000;stroke-width:0.8;" x="57.6" xlink:href="#m7ca676c6ec" y="83.065004"/>
      </g>
     </g>
     <g id="text_15">
      <!-- 1.5 -->
      <g transform="translate(34.696875 86.864223)scale(0.1 -0.1)">
       <use xlink:href="#DejaVuSans-31"/>
       <use x="63.623047" xlink:href="#DejaVuSans-2e"/>
       <use x="95.410156" xlink:href="#DejaVuSans-35"/>
      </g>
     </g>
    </g>
    <g id="ytick_9">
     <g id="line2d_29">
      <path clip-path="url(#pa0e6a181fd)" d="M 57.6 52.512488 
L 414.72 52.512488 
" style="fill:none;stroke:#b0b0b0;stroke-linecap:square;stroke-width:0.8;"/>
     </g>
     <g id="line2d_30">
      <g>
       <use style="stroke:#000000;stroke-width:0.8;" x="57.6" xlink:href="#m7ca676c6ec" y="52.512488"/>
      </g>
     </g>
     <g id="text_16">
      <!-- 2.0 -->
      <g transform="translate(34.696875 56.311707)scale(0.1 -0.1)">
       <use xlink:href="#DejaVuSans-32"/>
       <use x="63.623047" xlink:href="#DejaVuSans-2e"/>
       <use x="95.410156" xlink:href="#DejaVuSans-30"/>
      </g>
     </g>
    </g>
    <g id="text_17">
     <!-- Voltage (V) -->
     <defs>
      <path d="M 28.609375 0 
L 0.78125 72.90625 
L 11.078125 72.90625 
L 34.1875 11.53125 
L 57.328125 72.90625 
L 67.578125 72.90625 
L 39.796875 0 
z
" id="DejaVuSans-56"/>
      <path d="M 30.609375 48.390625 
Q 23.390625 48.390625 19.1875 42.75 
Q 14.984375 37.109375 14.984375 27.296875 
Q 14.984375 17.484375 19.15625 11.84375 
Q 23.34375 6.203125 30.609375 6.203125 
Q 37.796875 6.203125 41.984375 11.859375 
Q 46.1875 17.53125 46.1875 27.296875 
Q 46.1875 37.015625 41.984375 42.703125 
Q 37.796875 48.390625 30.609375 48.390625 
z
M 30.609375 56 
Q 42.328125 56 49.015625 48.375 
Q 55.71875 40.765625 55.71875 27.296875 
Q 55.71875 13.875 49.015625 6.21875 
Q 42.328125 -1.421875 30.609375 -1.421875 
Q 18.84375 -1.421875 12.171875 6.21875 
Q 5.515625 13.875 5.515625 27.296875 
Q 5.515625 40.765625 12.171875 48.375 
Q 18.84375 56 30.609375 56 
z
" id="DejaVuSans-6f"/>
      <path d="M 9.421875 75.984375 
L 18.40625 75.984375 
L 18.40625 0 
L 9.421875 0 
z
" id="DejaVuSans-6c"/>
      <path d="M 18.3125 70.21875 
L 18.3125 54.6875 
L 36.8125 54.6875 
L 36.8125 47.703125 
L 18.3125 47.703125 
L 18.3125 18.015625 
Q 18.3125 11.328125 20.140625 9.421875 
Q 21.96875 7.515625 27.59375 7.515625 
L 36.8125 7.515625 
L 36.8125 0 
L 27.59375 0 
Q 17.1875 0 13.234375 3.875 
Q 9.28125 7.765625 9.28125 18.015625 
L 9.28125 47.703125 
L 2.6875 47.703125 
L 2.6875 54.6875 
L 9.28125 54.6875 
L 9.28125 70.21875 
z
" id="DejaVuSans-74"/>
      <path d="M 34.28125 27.484375 
Q 23.390625 27.484375 19.1875 25 
Q 14.984375 22.515625 14.984375 16.5 
Q 14.984375 11.71875 18.140625 8.90625 
Q 21.296875 6.109375 26.703125 6.109375 
Q 34.1875 6.109375 38.703125 11.40625 
Q 43.21875 16.703125 43.21875 25.484375 
L 43.21875 27.484375 
z
M 52.203125 31.203125 
L 52.203125 0 
L 43.21875 0 
L 43.21875 8.296875 
Q 40.140625 3.328125 35.546875 0.953125 
Q 30.953125 -1.421875 24.3125 -1.421875 
Q 15.921875 -1.421875 10.953125 3.296875 
Q 6 8.015625 6 15.921875 
Q 6 25.140625 12.171875 29.828125 
Q 18.359375 34.515625 30.609375 34.515625 
L 43.21875 34.515625 
L 43.21875 35.40625 
Q 43.21875 41.609375 39.140625 45 
Q 35.0625 48.390625 27.6875 48.390625 
Q 23 48.390625 18.546875 47.265625 
Q 14.109375 46.140625 10.015625 43.890625 
L 10.015625 52.203125 
Q 14.9375 54.109375 19.578125 55.046875 
Q 24.21875 56 28.609375 56 
Q 40.484375 56 46.34375 49.84375 
Q 52.203125 43.703125 52.203125 31.203125 
z
" id="DejaVuSans-61"/>
      <path d="M 45.40625 27.984375 
Q 45.40625 37.75 41.375 43.109375 
Q 37.359375 48.484375 30.078125 48.484375 
Q 22.859375 48.484375 18.828125 43.109375 
Q 14.796875 37.75 14.796875 27.984375 
Q 14.796875 18.265625 18.828125 12.890625 
Q 22.859375 7.515625 30.078125 7.515625 
Q 37.359375 7.515625 41.375 12.890625 
Q 45.40625 18.265625 45.40625 27.984375 
z
M 54.390625 6.78125 
Q 54.390625 -7.171875 48.1875 -13.984375 
Q 42 -20.796875 29.203125 -20.796875 
Q 24.46875 -20.796875 20.265625 -20.09375 
Q 16.0625 -19.390625 12.109375 -17.921875 
L 12.109375 -9.1875 
Q 16.0625 -11.328125 19.921875 -12.34375 
Q 23.78125 -13.375 27.78125 -13.375 
Q 36.625 -13.375 41.015625 -8.765625 
Q 45.40625 -4.15625 45.40625 5.171875 
L 45.40625 9.625 
Q 42.625 4.78125 38.28125 2.390625 
Q 33.9375 0 27.875 0 
Q 17.828125 0 11.671875 7.65625 
Q 5.515625 15.328125 5.515625 27.984375 
Q 5.515625 40.671875 11.671875 48.328125 
Q 17.828125 56 27.875 56 
Q 33.9375 56 38.28125 53.609375 
Q 42.625 51.21875 45.40625 46.390625 
L 45.40625 54.6875 
L 54.390625 54.6875 
z
" id="DejaVuSans-67"/>
     </defs>
     <g transform="translate(20.2375 202.577219)rotate(-90)scale(0.1 -0.1)">
      <use xlink:href="#DejaVuSans-56"/>
      <use x="68.298828" xlink:href="#DejaVuSans-6f"/>
      <use x="129.480469" xlink:href="#DejaVuSans-6c"/>
      <use x="157.263672" xlink:href="#DejaVuSans-74"/>
      <use x="196.472656" xlink:href="#DejaVuSans-61"/>
      <use x="257.751953" xlink:href="#DejaVuSans-67"/>
      <use x="321.228516" xlink:href="#DejaVuSans-65"/>
      <use x="382.751953" xlink:href="#DejaVuSans-20"/>
      <use x="414.539062" xlink:href="#DejaVuSans-28"/>
      <use x="453.552734" xlink:href="#DejaVuSans-56"/>
      <use x="521.960938" xlink:href="#DejaVuSans-29"/>
     </g>
    </g>
   </g>
   <g id="line2d_31">
    <path clip-path="url(#pa0e6a181fd)" d="M 73.832727 174.721949 
L 76.250289 147.435521 
L 77.548908 134.864205 
L 78.522871 127.041537 
L 79.496835 120.907969 
L 80.146144 117.867325 
L 80.795453 115.723312 
L 81.444762 114.509742 
L 81.769417 114.258438 
L 82.094071 114.245755 
L 82.418726 114.471744 
L 82.74338 114.935514 
L 83.392689 116.56814 
L 84.041999 119.117887 
L 84.691308 122.544544 
L 85.665271 129.206945 
L 86.639235 137.481741 
L 87.937853 150.509358 
L 90.210435 176.420586 
L 92.483017 202.008376 
L 93.781635 214.579693 
L 94.755599 222.402361 
L 95.729562 228.535928 
L 96.378871 231.576573 
L 97.02818 233.720586 
L 97.677489 234.934155 
L 98.002144 235.18546 
L 98.326799 235.198142 
L 98.651453 234.972153 
L 98.976108 234.508384 
L 99.625417 232.875757 
L 100.274726 230.32601 
L 100.924035 226.899354 
L 101.897999 220.236952 
L 102.871962 211.962157 
L 104.17058 198.93454 
L 106.443162 173.023312 
L 108.715744 147.435521 
L 110.014362 134.864205 
L 110.988326 127.041537 
L 111.962289 120.907969 
L 112.611599 117.867325 
L 113.260908 115.723312 
L 113.910217 114.509742 
L 114.234871 114.258438 
L 114.559526 114.245755 
L 114.88418 114.471744 
L 115.208835 114.935514 
L 115.858144 116.56814 
L 116.507453 119.117887 
L 117.156762 122.544544 
L 118.130726 129.206945 
L 119.104689 137.481741 
L 120.403308 150.509358 
L 122.675889 176.420586 
L 124.948471 202.008376 
L 126.247089 214.579693 
L 127.221053 222.402361 
L 128.195017 228.535928 
L 128.844326 231.576573 
L 129.493635 233.720586 
L 130.142944 234.934155 
L 130.467599 235.18546 
L 130.792253 235.198142 
L 131.116908 234.972153 
L 131.441562 234.508384 
L 132.090871 232.875757 
L 132.74018 230.32601 
L 133.389489 226.899354 
L 134.363453 220.236952 
L 135.337417 211.962157 
L 136.636035 198.93454 
L 138.908617 173.023312 
L 141.181199 147.435521 
L 142.479817 134.864205 
L 143.45378 127.041537 
L 144.427744 120.907969 
L 145.077053 117.867325 
L 145.726362 115.723312 
L 146.375671 114.509742 
L 146.700326 114.258438 
L 147.02498 114.245755 
L 147.349635 114.471744 
L 147.674289 114.935514 
L 148.323599 116.56814 
L 148.972908 119.117887 
L 149.622217 122.544544 
L 150.59618 129.206945 
L 151.570144 137.481741 
L 152.868762 150.509358 
L 155.141344 176.420586 
L 157.413926 202.008376 
L 158.712544 214.579693 
L 159.686508 222.402361 
L 160.660471 228.535928 
L 161.30978 231.576573 
L 161.959089 233.720586 
L 162.608399 234.934155 
L 162.933053 235.18546 
L 163.257708 235.198142 
L 163.582362 234.972153 
L 163.907017 234.508384 
L 164.556326 232.875757 
L 165.205635 230.32601 
L 165.854944 226.899354 
L 166.828908 220.236952 
L 167.802871 211.962157 
L 169.101489 198.93454 
L 171.374071 173.023312 
L 173.646653 147.435521 
L 174.945271 134.864205 
L 175.919235 127.041537 
L 176.893199 120.907969 
L 177.542508 117.867325 
L 178.191817 115.723312 
L 178.841126 114.509742 
L 179.16578 114.258438 
L 179.490435 114.245755 
L 179.815089 114.471744 
L 180.139744 114.935514 
L 180.789053 116.56814 
L 181.438362 119.117887 
L 182.087671 122.544544 
L 183.061635 129.206945 
L 184.035599 137.481741 
L 185.334217 150.509358 
L 187.606799 176.420586 
L 189.87938 202.008376 
L 191.177999 214.579693 
L 192.151962 222.402361 
L 193.125926 228.535928 
L 193.775235 231.576573 
L 194.424544 233.720586 
L 195.073853 234.934155 
L 195.398508 235.18546 
L 195.723162 235.198142 
L 196.047817 234.972153 
L 196.372471 234.508384 
L 197.02178 232.875757 
L 197.671089 230.32601 
L 198.320399 226.899354 
L 199.294362 220.236952 
L 200.268326 211.962157 
L 201.566944 198.93454 
L 203.839526 173.023312 
L 206.112108 147.435521 
L 207.410726 134.864205 
L 208.384689 127.041537 
L 209.358653 120.907969 
L 210.007962 117.867325 
L 210.657271 115.723312 
L 211.30658 114.509742 
L 211.631235 114.258438 
L 211.955889 114.245755 
L 212.280544 114.471744 
L 212.605199 114.935514 
L 213.254508 116.56814 
L 213.903817 119.117887 
L 214.553126 122.544544 
L 215.527089 129.206945 
L 216.501053 137.481741 
L 217.799671 150.509358 
L 220.072253 176.420586 
L 222.344835 202.008376 
L 223.643453 214.579693 
L 224.617417 222.402361 
L 225.59138 228.535928 
L 226.240689 231.576573 
L 226.889999 233.720586 
L 227.539308 234.934155 
L 227.863962 235.18546 
L 228.188617 235.198142 
L 228.513271 234.972153 
L 228.837926 234.508384 
L 229.487235 232.875757 
L 230.136544 230.32601 
L 230.785853 226.899354 
L 231.759817 220.236952 
L 232.73378 211.962157 
L 234.032399 198.93454 
L 236.30498 173.023312 
L 238.577562 147.435521 
L 239.87618 134.864205 
L 240.850144 127.041537 
L 241.824108 120.907969 
L 242.473417 117.867325 
L 243.122726 115.723312 
L 243.772035 114.509742 
L 244.096689 114.258438 
L 244.421344 114.245755 
L 244.745999 114.471744 
L 245.070653 114.935514 
L 245.719962 116.56814 
L 246.369271 119.117887 
L 247.01858 122.544544 
L 247.992544 129.206945 
L 248.966508 137.481741 
L 250.265126 150.509358 
L 252.537708 176.420586 
L 254.810289 202.008376 
L 256.108908 214.579693 
L 257.082871 222.402361 
L 258.056835 228.535928 
L 258.706144 231.576573 
L 259.355453 233.720586 
L 260.004762 234.934155 
L 260.329417 235.18546 
L 260.654071 235.198142 
L 260.978726 234.972153 
L 261.30338 234.508384 
L 261.952689 232.875757 
L 262.601999 230.32601 
L 263.251308 226.899354 
L 264.225271 220.236952 
L 265.199235 211.962157 
L 266.497853 198.93454 
L 268.770435 173.023312 
L 271.043017 147.435521 
L 272.341635 134.864205 
L 273.315599 127.041537 
L 274.289562 120.907969 
L 274.938871 117.867325 
L 275.58818 115.723312 
L 276.237489 114.509742 
L 276.562144 114.258438 
L 276.886799 114.245755 
L 277.211453 114.471744 
L 277.536108 114.935514 
L 278.185417 116.56814 
L 278.834726 119.117887 
L 279.484035 122.544544 
L 280.457999 129.206945 
L 281.431962 137.481741 
L 282.73058 150.509358 
L 285.003162 176.420586 
L 287.275744 202.008376 
L 288.574362 214.579693 
L 289.548326 222.402361 
L 290.522289 228.535928 
L 291.171599 231.576573 
L 291.820908 233.720586 
L 292.470217 234.934155 
L 292.794871 235.18546 
L 293.119526 235.198142 
L 293.44418 234.972153 
L 293.768835 234.508384 
L 294.418144 232.875757 
L 295.067453 230.32601 
L 295.716762 226.899354 
L 296.690726 220.236952 
L 297.664689 211.962157 
L 298.963308 198.93454 
L 301.235889 173.023312 
L 303.508471 147.435521 
L 304.807089 134.864205 
L 305.781053 127.041537 
L 306.755017 120.907969 
L 307.404326 117.867325 
L 308.053635 115.723312 
L 308.702944 114.509742 
L 309.027599 114.258438 
L 309.352253 114.245755 
L 309.676908 114.471744 
L 310.001562 114.935514 
L 310.650871 116.56814 
L 311.30018 119.117887 
L 311.949489 122.544544 
L 312.923453 129.206945 
L 313.897417 137.481741 
L 315.196035 150.509358 
L 317.468617 176.420586 
L 319.741199 202.008376 
L 321.039817 214.579693 
L 322.01378 222.402361 
L 322.987744 228.535928 
L 323.637053 231.576573 
L 324.286362 233.720586 
L 324.935671 234.934155 
L 325.260326 235.18546 
L 325.58498 235.198142 
L 325.909635 234.972153 
L 326.234289 234.508384 
L 326.883599 232.875757 
L 327.532908 230.32601 
L 328.182217 226.899354 
L 329.15618 220.236952 
L 330.130144 211.962157 
L 331.428762 198.93454 
L 333.701344 173.023312 
L 335.973926 147.435521 
L 337.272544 134.864205 
L 338.246508 127.041537 
L 339.220471 120.907969 
L 339.86978 117.867325 
L 340.519089 115.723312 
L 341.168399 114.509742 
L 341.493053 114.258438 
L 341.817708 114.245755 
L 342.142362 114.471744 
L 342.467017 114.935514 
L 343.116326 116.56814 
L 343.765635 119.117887 
L 344.414944 122.544544 
L 345.388908 129.206945 
L 346.362871 137.481741 
L 347.661489 150.509358 
L 349.934071 176.420586 
L 352.206653 202.008376 
L 353.505271 214.579693 
L 354.479235 222.402361 
L 355.453199 228.535928 
L 356.102508 231.576573 
L 356.751817 233.720586 
L 357.401126 234.934155 
L 357.72578 235.18546 
L 358.050435 235.198142 
L 358.375089 234.972153 
L 358.699744 234.508384 
L 359.349053 232.875757 
L 359.998362 230.32601 
L 360.647671 226.899354 
L 361.621635 220.236952 
L 362.595599 211.962157 
L 363.894217 198.93454 
L 366.166799 173.023312 
L 368.43938 147.435521 
L 369.737999 134.864205 
L 370.711962 127.041537 
L 371.685926 120.907969 
L 372.335235 117.867325 
L 372.984544 115.723312 
L 373.633853 114.509742 
L 373.958508 114.258438 
L 374.283162 114.245755 
L 374.607817 114.471744 
L 374.932471 114.935514 
L 375.58178 116.56814 
L 376.231089 119.117887 
L 376.880399 122.544544 
L 377.854362 129.206945 
L 378.828326 137.481741 
L 380.126944 150.509358 
L 382.399526 176.420586 
L 384.672108 202.008376 
L 385.970726 214.579693 
L 386.944689 222.402361 
L 387.918653 228.535928 
L 388.567962 231.576573 
L 389.217271 233.720586 
L 389.86658 234.934155 
L 390.191235 235.18546 
L 390.515889 235.198142 
L 390.840544 234.972153 
L 391.165199 234.508384 
L 391.814508 232.875757 
L 392.463817 230.32601 
L 393.113126 226.899354 
L 394.087089 220.236952 
L 395.061053 211.962157 
L 396.359671 198.93454 
L 398.487273 174.720642 
L 398.487273 174.720642 
" style="fill:none;stroke:#1f77b4;stroke-linecap:square;stroke-width:1.5;"/>
   </g>
   <g id="line2d_32">
    <path clip-path="url(#pa0e6a181fd)" d="M 73.832727 174.528 
L 74.021192 178.546671 
L 76.250289 228.761841 
L 77.548908 253.959148 
L 78.522871 269.656125 
L 79.496835 281.982682 
L 80.146144 288.106926 
L 80.795453 292.439872 
L 81.444762 294.913221 
L 81.769417 295.439197 
L 82.094071 295.488 
L 82.418726 295.059422 
L 82.74338 294.155172 
L 83.392689 290.935788 
L 84.041999 285.880651 
L 84.691308 279.069523 
L 85.665271 265.802598 
L 86.639235 249.302849 
L 87.937853 223.299654 
L 89.88578 179.128445 
L 92.483017 120.294203 
L 93.781635 95.096876 
L 94.755599 79.399843 
L 95.729562 67.073324 
L 96.378871 60.949077 
L 97.02818 56.61613 
L 97.677489 54.142779 
L 98.002144 53.616802 
L 98.326799 53.568 
L 98.651453 53.99658 
L 98.976108 54.900828 
L 99.625417 58.120213 
L 100.274726 63.175351 
L 100.924035 69.986481 
L 101.897999 83.253416 
L 102.871962 99.753167 
L 104.17058 125.756389 
L 106.118508 169.927646 
L 108.715744 228.76176 
L 110.014362 253.959107 
L 110.988326 269.656148 
L 111.962289 281.982669 
L 112.611599 288.106918 
L 113.260908 292.439867 
L 113.910217 294.913219 
L 114.234871 295.439199 
L 114.559526 295.487999 
L 114.88418 295.059423 
L 115.208835 294.155173 
L 115.858144 290.935789 
L 116.507453 285.880653 
L 117.156762 279.069525 
L 118.130726 265.802596 
L 119.104689 249.302851 
L 120.403308 223.299656 
L 122.351235 179.128447 
L 124.948471 120.294205 
L 126.247089 95.096877 
L 127.221053 79.399842 
L 128.195017 67.073325 
L 128.844326 60.949078 
L 129.493635 56.616131 
L 130.142944 54.14278 
L 130.467599 53.616801 
L 130.792253 53.568001 
L 131.116908 53.996579 
L 131.441562 54.900829 
L 132.090871 58.120214 
L 132.74018 63.175352 
L 133.389489 69.986481 
L 134.363453 83.253415 
L 135.337417 99.753168 
L 136.636035 125.75639 
L 138.583962 169.927647 
L 141.181199 228.76176 
L 142.479817 253.959108 
L 143.45378 269.656148 
L 144.427744 281.98267 
L 145.077053 288.106918 
L 145.726362 292.439867 
L 146.375671 294.913219 
L 146.700326 295.439199 
L 147.02498 295.487999 
L 147.349635 295.059422 
L 147.674289 294.155173 
L 148.323599 290.935789 
L 148.972908 285.880653 
L 149.622217 279.069525 
L 150.59618 265.802596 
L 151.570144 249.302851 
L 152.868762 223.299656 
L 154.816689 179.128447 
L 157.413926 120.294205 
L 158.712544 95.096877 
L 159.686508 79.399842 
L 160.660471 67.073325 
L 161.30978 60.949078 
L 161.959089 56.616131 
L 162.608399 54.14278 
L 162.933053 53.616801 
L 163.257708 53.568001 
L 163.582362 53.996579 
L 163.907017 54.900829 
L 164.556326 58.120214 
L 165.205635 63.175352 
L 165.854944 69.986482 
L 166.828908 83.253415 
L 167.802871 99.753168 
L 169.101489 125.75639 
L 171.049417 169.927647 
L 173.646653 228.76176 
L 174.945271 253.959108 
L 175.919235 269.656148 
L 176.893199 281.98267 
L 177.542508 288.106918 
L 178.191817 292.439867 
L 178.841126 294.913219 
L 179.16578 295.439199 
L 179.490435 295.487999 
L 179.815089 295.059422 
L 180.139744 294.155173 
L 180.789053 290.935789 
L 181.438362 285.880653 
L 182.087671 279.069525 
L 183.061635 265.802596 
L 184.035599 249.302851 
L 185.334217 223.299656 
L 187.282144 179.128447 
L 189.87938 120.294205 
L 191.177999 95.096877 
L 192.151962 79.399842 
L 193.125926 67.073325 
L 193.775235 60.949078 
L 194.424544 56.616131 
L 195.073853 54.14278 
L 195.398508 53.616801 
L 195.723162 53.568001 
L 196.047817 53.996579 
L 196.372471 54.900829 
L 197.02178 58.120214 
L 197.671089 63.175352 
L 198.320399 69.986482 
L 199.294362 83.253415 
L 200.268326 99.753168 
L 201.566944 125.75639 
L 203.514871 169.927647 
L 206.112108 228.76176 
L 207.410726 253.959108 
L 208.384689 269.656148 
L 209.358653 281.98267 
L 210.007962 288.106918 
L 210.657271 292.439867 
L 211.30658 294.913219 
L 211.631235 295.439199 
L 211.955889 295.487999 
L 212.280544 295.059422 
L 212.605199 294.155173 
L 213.254508 290.935789 
L 213.903817 285.880653 
L 214.553126 279.069525 
L 215.527089 265.802596 
L 216.501053 249.302851 
L 217.799671 223.299656 
L 219.747599 179.128447 
L 222.344835 120.294205 
L 223.643453 95.096877 
L 224.617417 79.399842 
L 225.59138 67.073325 
L 226.240689 60.949078 
L 226.889999 56.616131 
L 227.539308 54.14278 
L 227.863962 53.616801 
L 228.188617 53.568001 
L 228.513271 53.996579 
L 228.837926 54.900829 
L 229.487235 58.120214 
L 230.136544 63.175352 
L 230.785853 69.986482 
L 231.759817 83.253415 
L 232.73378 99.753168 
L 234.032399 125.75639 
L 235.980326 169.927647 
L 238.577562 228.76176 
L 239.87618 253.959108 
L 240.850144 269.656148 
L 241.824108 281.98267 
L 242.473417 288.106918 
L 243.122726 292.439867 
L 243.772035 294.913219 
L 244.096689 295.439199 
L 244.421344 295.487999 
L 244.745999 295.059422 
L 245.070653 294.155173 
L 245.719962 290.935789 
L 246.369271 285.880653 
L 247.01858 279.069525 
L 247.992544 265.802596 
L 248.966508 249.302851 
L 250.265126 223.299656 
L 252.213053 179.128447 
L 254.810289 120.294205 
L 256.108908 95.096877 
L 257.082871 79.399842 
L 258.056835 67.073325 
L 258.706144 60.949078 
L 259.355453 56.616131 
L 260.004762 54.14278 
L 260.329417 53.616801 
L 260.654071 53.568001 
L 260.978726 53.996579 
L 261.30338 54.900829 
L 261.952689 58.120214 
L 262.601999 63.175352 
L 263.251308 69.986482 
L 264.225271 83.253415 
L 265.199235 99.753168 
L 266.497853 125.75639 
L 268.44578 169.927647 
L 271.043017 228.76176 
L 272.341635 253.959108 
L 273.315599 269.656148 
L 274.289562 281.98267 
L 274.938871 288.106918 
L 275.58818 292.439867 
L 276.237489 294.913219 
L 276.562144 295.439199 
L 276.886799 295.487999 
L 277.211453 295.059422 
L 277.536108 294.155173 
L 278.185417 290.935789 
L 278.834726 285.880653 
L 279.484035 279.069525 
L 280.457999 265.802596 
L 281.431962 249.302851 
L 282.73058 223.299656 
L 284.678508 179.128447 
L 287.275744 120.294205 
L 288.574362 95.096877 
L 289.548326 79.399842 
L 290.522289 67.073325 
L 291.171599 60.949078 
L 291.820908 56.616131 
L 292.470217 54.14278 
L 292.794871 53.616801 
L 293.119526 53.568001 
L 293.44418 53.996579 
L 293.768835 54.900829 
L 294.418144 58.120214 
L 295.067453 63.175352 
L 295.716762 69.986482 
L 296.690726 83.253415 
L 297.664689 99.753168 
L 298.963308 125.75639 
L 300.911235 169.927647 
L 303.508471 228.76176 
L 304.807089 253.959108 
L 305.781053 269.656148 
L 306.755017 281.98267 
L 307.404326 288.106918 
L 308.053635 292.439867 
L 308.702944 294.913219 
L 309.027599 295.439199 
L 309.352253 295.487999 
L 309.676908 295.059422 
L 310.001562 294.155173 
L 310.650871 290.935789 
L 311.30018 285.880653 
L 311.949489 279.069525 
L 312.923453 265.802596 
L 313.897417 249.302851 
L 315.196035 223.299656 
L 317.143962 179.128447 
L 319.741199 120.294205 
L 321.039817 95.096877 
L 322.01378 79.399842 
L 322.987744 67.073325 
L 323.637053 60.949078 
L 324.286362 56.616131 
L 324.935671 54.14278 
L 325.260326 53.616801 
L 325.58498 53.568001 
L 325.909635 53.996579 
L 326.234289 54.900829 
L 326.883599 58.120214 
L 327.532908 63.175352 
L 328.182217 69.986482 
L 329.15618 83.253415 
L 330.130144 99.753168 
L 331.428762 125.75639 
L 333.376689 169.927647 
L 335.973926 228.76176 
L 337.272544 253.959108 
L 338.246508 269.656148 
L 339.220471 281.98267 
L 339.86978 288.106918 
L 340.519089 292.439867 
L 341.168399 294.913219 
L 341.493053 295.439199 
L 341.817708 295.487999 
L 342.142362 295.059422 
L 342.467017 294.155173 
L 343.116326 290.935789 
L 343.765635 285.880653 
L 344.414944 279.069525 
L 345.388908 265.802596 
L 346.362871 249.302851 
L 347.661489 223.299656 
L 349.609417 179.128447 
L 352.206653 120.294205 
L 353.505271 95.096877 
L 354.479235 79.399842 
L 355.453199 67.073325 
L 356.102508 60.949078 
L 356.751817 56.616131 
L 357.401126 54.14278 
L 357.72578 53.616801 
L 358.050435 53.568001 
L 358.375089 53.996579 
L 358.699744 54.900829 
L 359.349053 58.120214 
L 359.998362 63.175352 
L 360.647671 69.986482 
L 361.621635 83.253415 
L 362.595599 99.753168 
L 363.894217 125.75639 
L 365.842144 169.927647 
L 368.43938 228.76176 
L 369.737999 253.959108 
L 370.711962 269.656148 
L 371.685926 281.98267 
L 372.335235 288.106918 
L 372.984544 292.439867 
L 373.633853 294.913219 
L 373.958508 295.439199 
L 374.283162 295.487999 
L 374.607817 295.059422 
L 374.932471 294.155173 
L 375.58178 290.935789 
L 376.231089 285.880653 
L 376.880399 279.069525 
L 377.854362 265.802596 
L 378.828326 249.302851 
L 380.126944 223.299656 
L 382.074871 179.128447 
L 384.672108 120.294205 
L 385.970726 95.096877 
L 386.944689 79.399842 
L 387.918653 67.073325 
L 388.567962 60.949078 
L 389.217271 56.616131 
L 389.86658 54.14278 
L 390.191235 53.616801 
L 390.515889 53.568001 
L 390.840544 53.996579 
L 391.165199 54.900829 
L 391.814508 58.120214 
L 392.463817 63.175352 
L 393.113126 69.986482 
L 394.087089 83.253415 
L 395.061053 99.753168 
L 396.359671 125.75639 
L 398.487273 174.13375 
L 398.487273 174.13375 
" style="fill:none;stroke:#ff7f0e;stroke-linecap:square;stroke-width:1.5;"/>
   </g>
   <g id="patch_3">
    <path d="M 57.6 307.584 
L 57.6 41.472 
" style="fill:none;stroke:#000000;stroke-linecap:square;stroke-linejoin:miter;stroke-width:0.8;"/>
   </g>
   <g id="patch_4">
    <path d="M 414.72 307.584 
L 414.72 41.472 
" style="fill:none;stroke:#000000;stroke-linecap:square;stroke-linejoin:miter;stroke-width:0.8;"/>
   </g>
   <g id="patch_5">
    <path d="M 57.6 307.584 
L 414.72 307.584 
" style="fill:none;stroke:#000000;stroke-linecap:square;stroke-linejoin:miter;stroke-width:0.8;"/>
   </g>
   <g id="patch_6">
    <path d="M 57.6 41.472 
L 414.72 41.472 
" style="fill:none;stroke:#000000;stroke-linecap:square;stroke-linejoin:miter;stroke-width:0.8;"/>
   </g>
   <g id="text_18">
    <!-- Example: inverting amplifier with lm741 -->
    <defs>
     <path d="M 9.8125 72.90625 
L 55.90625 72.90625 
L 55.90625 64.59375 
L 19.671875 64.59375 
L 19.671875 43.015625 
L 54.390625 43.015625 
L 54.390625 34.71875 
L 19.671875 34.71875 
L 19.671875 8.296875 
L 56.78125 8.296875 
L 56.78125 0 
L 9.8125 0 
z
" id="DejaVuSans-45"/>
     <path d="M 54.890625 54.6875 
L 35.109375 28.078125 
L 55.90625 0 
L 45.3125 0 
L 29.390625 21.484375 
L 13.484375 0 
L 2.875 0 
L 24.125 28.609375 
L 4.6875 54.6875 
L 15.28125 54.6875 
L 29.78125 35.203125 
L 44.28125 54.6875 
z
" id="DejaVuSans-78"/>
     <path d="M 18.109375 8.203125 
L 18.109375 -20.796875 
L 9.078125 -20.796875 
L 9.078125 54.6875 
L 18.109375 54.6875 
L 18.109375 46.390625 
Q 20.953125 51.265625 25.265625 53.625 
Q 29.59375 56 35.59375 56 
Q 45.5625 56 51.78125 48.09375 
Q 58.015625 40.1875 58.015625 27.296875 
Q 58.015625 14.40625 51.78125 6.484375 
Q 45.5625 -1.421875 35.59375 -1.421875 
Q 29.59375 -1.421875 25.265625 0.953125 
Q 20.953125 3.328125 18.109375 8.203125 
z
M 48.6875 27.296875 
Q 48.6875 37.203125 44.609375 42.84375 
Q 40.53125 48.484375 33.40625 48.484375 
Q 26.265625 48.484375 22.1875 42.84375 
Q 18.109375 37.203125 18.109375 27.296875 
Q 18.109375 17.390625 22.1875 11.75 
Q 26.265625 6.109375 33.40625 6.109375 
Q 40.53125 6.109375 44.609375 11.75 
Q 48.6875 17.390625 48.6875 27.296875 
z
" id="DejaVuSans-70"/>
     <path d="M 11.71875 12.40625 
L 22.015625 12.40625 
L 22.015625 0 
L 11.71875 0 
z
M 11.71875 51.703125 
L 22.015625 51.703125 
L 22.015625 39.3125 
L 11.71875 39.3125 
z
" id="DejaVuSans-3a"/>
     <path d="M 54.890625 33.015625 
L 54.890625 0 
L 45.90625 0 
L 45.90625 32.71875 
Q 45.90625 40.484375 42.875 44.328125 
Q 39.84375 48.1875 33.796875 48.1875 
Q 26.515625 48.1875 22.3125 43.546875 
Q 18.109375 38.921875 18.109375 30.90625 
L 18.109375 0 
L 9.078125 0 
L 9.078125 54.6875 
L 18.109375 54.6875 
L 18.109375 46.1875 
Q 21.34375 51.125 25.703125 53.5625 
Q 30.078125 56 35.796875 56 
Q 45.21875 56 50.046875 50.171875 
Q 54.890625 44.34375 54.890625 33.015625 
z
" id="DejaVuSans-6e"/>
     <path d="M 2.984375 54.6875 
L 12.5 54.6875 
L 29.59375 8.796875 
L 46.6875 54.6875 
L 56.203125 54.6875 
L 35.6875 0 
L 23.484375 0 
z
" id="DejaVuSans-76"/>
     <path d="M 41.109375 46.296875 
Q 39.59375 47.171875 37.8125 47.578125 
Q 36.03125 48 33.890625 48 
Q 26.265625 48 22.1875 43.046875 
Q 18.109375 38.09375 18.109375 28.8125 
L 18.109375 0 
L 9.078125 0 
L 9.078125 54.6875 
L 18.109375 54.6875 
L 18.109375 46.1875 
Q 20.953125 51.171875 25.484375 53.578125 
Q 30.03125 56 36.53125 56 
Q 37.453125 56 38.578125 55.875 
Q 39.703125 55.765625 41.0625 55.515625 
z
" id="DejaVuSans-72"/>
     <path d="M 37.109375 75.984375 
L 37.109375 68.5 
L 28.515625 68.5 
Q 23.6875 68.5 21.796875 66.546875 
Q 19.921875 64.59375 19.921875 59.515625 
L 19.921875 54.6875 
L 34.71875 54.6875 
L 34.71875 47.703125 
L 19.921875 47.703125 
L 19.921875 0 
L 10.890625 0 
L 10.890625 47.703125 
L 2.296875 47.703125 
L 2.296875 54.6875 
L 10.890625 54.6875 
L 10.890625 58.5 
Q 10.890625 67.625 15.140625 71.796875 
Q 19.390625 75.984375 28.609375 75.984375 
z
" id="DejaVuSans-66"/>
     <path d="M 4.203125 54.6875 
L 13.1875 54.6875 
L 24.421875 12.015625 
L 35.59375 54.6875 
L 46.1875 54.6875 
L 57.421875 12.015625 
L 68.609375 54.6875 
L 77.59375 54.6875 
L 63.28125 0 
L 52.6875 0 
L 40.921875 44.828125 
L 29.109375 0 
L 18.5 0 
z
" id="DejaVuSans-77"/>
     <path d="M 54.890625 33.015625 
L 54.890625 0 
L 45.90625 0 
L 45.90625 32.71875 
Q 45.90625 40.484375 42.875 44.328125 
Q 39.84375 48.1875 33.796875 48.1875 
Q 26.515625 48.1875 22.3125 43.546875 
Q 18.109375 38.921875 18.109375 30.90625 
L 18.109375 0 
L 9.078125 0 
L 9.078125 75.984375 
L 18.109375 75.984375 
L 18.109375 46.1875 
Q 21.34375 51.125 25.703125 53.5625 
Q 30.078125 56 35.796875 56 
Q 45.21875 56 50.046875 50.171875 
Q 54.890625 44.34375 54.890625 33.015625 
z
" id="DejaVuSans-68"/>
     <path d="M 8.203125 72.90625 
L 55.078125 72.90625 
L 55.078125 68.703125 
L 28.609375 0 
L 18.3125 0 
L 43.21875 64.59375 
L 8.203125 64.59375 
z
" id="DejaVuSans-37"/>
    </defs>
    <g transform="translate(115.37625 35.472)scale(0.12 -0.12)">
     <use xlink:href="#DejaVuSans-45"/>
     <use x="63.183594" xlink:href="#DejaVuSans-78"/>
     <use x="122.363281" xlink:href="#DejaVuSans-61"/>
     <use x="183.642578" xlink:href="#DejaVuSans-6d"/>
     <use x="281.054688" xlink:href="#DejaVuSans-70"/>
     <use x="344.53125" xlink:href="#DejaVuSans-6c"/>
     <use x="372.314453" xlink:href="#DejaVuSans-65"/>
     <use x="433.837891" xlink:href="#DejaVuSans-3a"/>
     <use x="467.529297" xlink:href="#DejaVuSans-20"/>
     <use x="499.316406" xlink:href="#DejaVuSans-69"/>
     <use x="527.099609" xlink:href="#DejaVuSans-6e"/>
     <use x="590.478516" xlink:href="#DejaVuSans-76"/>
     <use x="649.658203" xlink:href="#DejaVuSans-65"/>
     <use x="711.181641" xlink:href="#DejaVuSans-72"/>
     <use x="752.294922" xlink:href="#DejaVuSans-74"/>
     <use x="791.503906" xlink:href="#DejaVuSans-69"/>
     <use x="819.287109" xlink:href="#DejaVuSans-6e"/>
     <use x="882.666016" xlink:href="#DejaVuSans-67"/>
     <use x="946.142578" xlink:href="#DejaVuSans-20"/>
     <use x="977.929688" xlink:href="#DejaVuSans-61"/>
     <use x="1039.208984" xlink:href="#DejaVuSans-6d"/>
     <use x="1136.621094" xlink:href="#DejaVuSans-70"/>
     <use x="1200.097656" xlink:href="#DejaVuSans-6c"/>
     <use x="1227.880859" xlink:href="#DejaVuSans-69"/>
     <use x="1255.664062" xlink:href="#DejaVuSans-66"/>
     <use x="1290.869141" xlink:href="#DejaVuSans-69"/>
     <use x="1318.652344" xlink:href="#DejaVuSans-65"/>
     <use x="1380.175781" xlink:href="#DejaVuSans-72"/>
     <use x="1421.289062" xlink:href="#DejaVuSans-20"/>
     <use x="1453.076172" xlink:href="#DejaVuSans-77"/>
     <use x="1534.863281" xlink:href="#DejaVuSans-69"/>
     <use x="1562.646484" xlink:href="#DejaVuSans-74"/>
     <use x="1601.855469" xlink:href="#DejaVuSans-68"/>
     <use x="1665.234375" xlink:href="#DejaVuSans-20"/>
     <use x="1697.021484" xlink:href="#DejaVuSans-6c"/>
     <use x="1724.804688" xlink:href="#DejaVuSans-6d"/>
     <use x="1822.216797" xlink:href="#DejaVuSans-37"/>
     <use x="1885.839844" xlink:href="#DejaVuSans-34"/>
     <use x="1949.462891" xlink:href="#DejaVuSans-31"/>
    </g>
   </g>
   <g id="legend_1">
    <g id="patch_7">
     <path d="M 64.6 78.82825 
L 118.895312 78.82825 
Q 120.895312 78.82825 120.895312 76.82825 
L 120.895312 48.472 
Q 120.895312 46.472 118.895312 46.472 
L 64.6 46.472 
Q 62.6 46.472 62.6 48.472 
L 62.6 76.82825 
Q 62.6 78.82825 64.6 78.82825 
z
" style="fill:#ffffff;opacity:0.8;stroke:#cccccc;stroke-linejoin:miter;"/>
    </g>
    <g id="line2d_33">
     <path d="M 66.6 54.570437 
L 86.6 54.570437 
" style="fill:none;stroke:#1f77b4;stroke-linecap:square;stroke-width:1.5;"/>
    </g>
    <g id="line2d_34"/>
    <g id="text_19">
     <!-- vin -->
     <g transform="translate(94.6 58.070437)scale(0.1 -0.1)">
      <use xlink:href="#DejaVuSans-76"/>
      <use x="59.179688" xlink:href="#DejaVuSans-69"/>
      <use x="86.962891" xlink:href="#DejaVuSans-6e"/>
     </g>
    </g>
    <g id="line2d_35">
     <path d="M 66.6 69.248562 
L 86.6 69.248562 
" style="fill:none;stroke:#ff7f0e;stroke-linecap:square;stroke-width:1.5;"/>
    </g>
    <g id="line2d_36"/>
    <g id="text_20">
     <!-- vout -->
     <defs>
      <path d="M 8.5 21.578125 
L 8.5 54.6875 
L 17.484375 54.6875 
L 17.484375 21.921875 
Q 17.484375 14.15625 20.5 10.265625 
Q 23.53125 6.390625 29.59375 6.390625 
Q 36.859375 6.390625 41.078125 11.03125 
Q 45.3125 15.671875 45.3125 23.6875 
L 45.3125 54.6875 
L 54.296875 54.6875 
L 54.296875 0 
L 45.3125 0 
L 45.3125 8.40625 
Q 42.046875 3.421875 37.71875 1 
Q 33.40625 -1.421875 27.6875 -1.421875 
Q 18.265625 -1.421875 13.375 4.4375 
Q 8.5 10.296875 8.5 21.578125 
z
M 31.109375 56 
z
" id="DejaVuSans-75"/>
     </defs>
     <g transform="translate(94.6 72.748562)scale(0.1 -0.1)">
      <use xlink:href="#DejaVuSans-76"/>
      <use x="59.179688" xlink:href="#DejaVuSans-6f"/>
      <use x="120.361328" xlink:href="#DejaVuSans-75"/>
      <use x="183.740234" xlink:href="#DejaVuSans-74"/>
     </g>
    </g>
   </g>
  </g>
 </g>
 <defs>
  <clipPath id="pa0e6a181fd">
   <rect height="266.112" width="357.12" x="57.6" y="41.472"/>
  </clipPath>
 </defs>
</svg>
