<?xml version="1.0" encoding="utf-8" standalone="no"?>
<!DOCTYPE svg PUBLIC "-//W3C//DTD SVG 1.1//EN"
  "http://www.w3.org/Graphics/SVG/1.1/DTD/svg11.dtd">
<!-- Created with matplotlib (https://matplotlib.org/) -->
<svg height="352.861125pt" version="1.1" viewBox="0 0 467.804375 352.861125" width="467.804375pt" xmlns="http://www.w3.org/2000/svg" xmlns:xlink="http://www.w3.org/1999/xlink">
 <defs>
  <style type="text/css">
*{stroke-linecap:butt;stroke-linejoin:round;}
  </style>
 </defs>
 <g id="figure_1">
  <g id="patch_1">
   <path d="M 0 352.861125 
L 467.804375 352.861125 
L 467.804375 0 
L 0 0 
z
" style="fill:#ffffff;"/>
  </g>
  <g id="axes_1">
   <g id="patch_2">
    <path d="M 52.160938 315.304875 
L 409.280938 315.304875 
L 409.280938 49.192875 
L 52.160938 49.192875 
z
" style="fill:#ffffff;"/>
   </g>
   <g id="matplotlib.axis_1">
    <g id="xtick_1">
     <g id="line2d_1">
      <path clip-path="url(#p47786d915a)" d="M 68.393665 315.304875 
L 68.393665 49.192875 
" style="fill:none;stroke:#b0b0b0;stroke-linecap:square;stroke-width:0.8;"/>
     </g>
     <g id="line2d_2">
      <defs>
       <path d="M 0 0 
L 0 3.5 
" id="m662378f091" style="stroke:#000000;stroke-width:0.8;"/>
      </defs>
      <g>
       <use style="stroke:#000000;stroke-width:0.8;" x="68.393665" xlink:href="#m662378f091" y="315.304875"/>
      </g>
     </g>
     <g id="text_1">
      <!-- 0.000 -->
      <defs>
       <path d="M 31.78125 66.40625 
Q 24.171875 66.40625 20.328125 58.90625 
Q 16.5 51.421875 16.5 36.375 
Q 16.5 21.390625 20.328125 13.890625 
Q 24.171875 6.390625 31.78125 6.390625 
Q 39.453125 6.390625 43.28125 13.890625 
Q 47.125 21.390625 47.125 36.375 
Q 47.125 51.421875 43.28125 58.90625 
Q 39.453125 66.40625 31.78125 66.40625 
z
M 31.78125 74.21875 
Q 44.046875 74.21875 50.515625 64.515625 
Q 56.984375 54.828125 56.984375 36.375 
Q 56.984375 17.96875 50.515625 8.265625 
Q 44.046875 -1.421875 31.78125 -1.421875 
Q 19.53125 -1.421875 13.0625 8.265625 
Q 6.59375 17.96875 6.59375 36.375 
Q 6.59375 54.828125 13.0625 64.515625 
Q 19.53125 74.21875 31.78125 74.21875 
z
" id="DejaVuSans-48"/>
       <path d="M 10.6875 12.40625 
L 21 12.40625 
L 21 0 
L 10.6875 0 
z
" id="DejaVuSans-46"/>
      </defs>
      <g transform="translate(54.079602 329.903312)scale(0.1 -0.1)">
       <use xlink:href="#DejaVuSans-48"/>
       <use x="63.623047" xlink:href="#DejaVuSans-46"/>
       <use x="95.410156" xlink:href="#DejaVuSans-48"/>
       <use x="159.033203" xlink:href="#DejaVuSans-48"/>
       <use x="222.65625" xlink:href="#DejaVuSans-48"/>
      </g>
     </g>
    </g>
    <g id="xtick_2">
     <g id="line2d_3">
      <path clip-path="url(#p47786d915a)" d="M 133.324574 315.304875 
L 133.324574 49.192875 
" style="fill:none;stroke:#b0b0b0;stroke-linecap:square;stroke-width:0.8;"/>
     </g>
     <g id="line2d_4">
      <g>
       <use style="stroke:#000000;stroke-width:0.8;" x="133.324574" xlink:href="#m662378f091" y="315.304875"/>
      </g>
     </g>
     <g id="text_2">
      <!-- 0.002 -->
      <defs>
       <path d="M 19.1875 8.296875 
L 53.609375 8.296875 
L 53.609375 0 
L 7.328125 0 
L 7.328125 8.296875 
Q 12.9375 14.109375 22.625 23.890625 
Q 32.328125 33.6875 34.8125 36.53125 
Q 39.546875 41.84375 41.421875 45.53125 
Q 43.3125 49.21875 43.3125 52.78125 
Q 43.3125 58.59375 39.234375 62.25 
Q 35.15625 65.921875 28.609375 65.921875 
Q 23.96875 65.921875 18.8125 64.3125 
Q 13.671875 62.703125 7.8125 59.421875 
L 7.8125 69.390625 
Q 13.765625 71.78125 18.9375 73 
Q 24.125 74.21875 28.421875 74.21875 
Q 39.75 74.21875 46.484375 68.546875 
Q 53.21875 62.890625 53.21875 53.421875 
Q 53.21875 48.921875 51.53125 44.890625 
Q 49.859375 40.875 45.40625 35.40625 
Q 44.1875 33.984375 37.640625 27.21875 
Q 31.109375 20.453125 19.1875 8.296875 
z
" id="DejaVuSans-50"/>
      </defs>
      <g transform="translate(119.010511 329.903312)scale(0.1 -0.1)">
       <use xlink:href="#DejaVuSans-48"/>
       <use x="63.623047" xlink:href="#DejaVuSans-46"/>
       <use x="95.410156" xlink:href="#DejaVuSans-48"/>
       <use x="159.033203" xlink:href="#DejaVuSans-48"/>
       <use x="222.65625" xlink:href="#DejaVuSans-50"/>
      </g>
     </g>
    </g>
    <g id="xtick_3">
     <g id="line2d_5">
      <path clip-path="url(#p47786d915a)" d="M 198.255483 315.304875 
L 198.255483 49.192875 
" style="fill:none;stroke:#b0b0b0;stroke-linecap:square;stroke-width:0.8;"/>
     </g>
     <g id="line2d_6">
      <g>
       <use style="stroke:#000000;stroke-width:0.8;" x="198.255483" xlink:href="#m662378f091" y="315.304875"/>
      </g>
     </g>
     <g id="text_3">
      <!-- 0.004 -->
      <defs>
       <path d="M 37.796875 64.3125 
L 12.890625 25.390625 
L 37.796875 25.390625 
z
M 35.203125 72.90625 
L 47.609375 72.90625 
L 47.609375 25.390625 
L 58.015625 25.390625 
L 58.015625 17.1875 
L 47.609375 17.1875 
L 47.609375 0 
L 37.796875 0 
L 37.796875 17.1875 
L 4.890625 17.1875 
L 4.890625 26.703125 
z
" id="DejaVuSans-52"/>
      </defs>
      <g transform="translate(183.94142 329.903312)scale(0.1 -0.1)">
       <use xlink:href="#DejaVuSans-48"/>
       <use x="63.623047" xlink:href="#DejaVuSans-46"/>
       <use x="95.410156" xlink:href="#DejaVuSans-48"/>
       <use x="159.033203" xlink:href="#DejaVuSans-48"/>
       <use x="222.65625" xlink:href="#DejaVuSans-52"/>
      </g>
     </g>
    </g>
    <g id="xtick_4">
     <g id="line2d_7">
      <path clip-path="url(#p47786d915a)" d="M 263.186392 315.304875 
L 263.186392 49.192875 
" style="fill:none;stroke:#b0b0b0;stroke-linecap:square;stroke-width:0.8;"/>
     </g>
     <g id="line2d_8">
      <g>
       <use style="stroke:#000000;stroke-width:0.8;" x="263.186392" xlink:href="#m662378f091" y="315.304875"/>
      </g>
     </g>
     <g id="text_4">
      <!-- 0.006 -->
      <defs>
       <path d="M 33.015625 40.375 
Q 26.375 40.375 22.484375 35.828125 
Q 18.609375 31.296875 18.609375 23.390625 
Q 18.609375 15.53125 22.484375 10.953125 
Q 26.375 6.390625 33.015625 6.390625 
Q 39.65625 6.390625 43.53125 10.953125 
Q 47.40625 15.53125 47.40625 23.390625 
Q 47.40625 31.296875 43.53125 35.828125 
Q 39.65625 40.375 33.015625 40.375 
z
M 52.59375 71.296875 
L 52.59375 62.3125 
Q 48.875 64.0625 45.09375 64.984375 
Q 41.3125 65.921875 37.59375 65.921875 
Q 27.828125 65.921875 22.671875 59.328125 
Q 17.53125 52.734375 16.796875 39.40625 
Q 19.671875 43.65625 24.015625 45.921875 
Q 28.375 48.1875 33.59375 48.1875 
Q 44.578125 48.1875 50.953125 41.515625 
Q 57.328125 34.859375 57.328125 23.390625 
Q 57.328125 12.15625 50.6875 5.359375 
Q 44.046875 -1.421875 33.015625 -1.421875 
Q 20.359375 -1.421875 13.671875 8.265625 
Q 6.984375 17.96875 6.984375 36.375 
Q 6.984375 53.65625 15.1875 63.9375 
Q 23.390625 74.21875 37.203125 74.21875 
Q 40.921875 74.21875 44.703125 73.484375 
Q 48.484375 72.75 52.59375 71.296875 
z
" id="DejaVuSans-54"/>
      </defs>
      <g transform="translate(248.87233 329.903312)scale(0.1 -0.1)">
       <use xlink:href="#DejaVuSans-48"/>
       <use x="63.623047" xlink:href="#DejaVuSans-46"/>
       <use x="95.410156" xlink:href="#DejaVuSans-48"/>
       <use x="159.033203" xlink:href="#DejaVuSans-48"/>
       <use x="222.65625" xlink:href="#DejaVuSans-54"/>
      </g>
     </g>
    </g>
    <g id="xtick_5">
     <g id="line2d_9">
      <path clip-path="url(#p47786d915a)" d="M 328.117301 315.304875 
L 328.117301 49.192875 
" style="fill:none;stroke:#b0b0b0;stroke-linecap:square;stroke-width:0.8;"/>
     </g>
     <g id="line2d_10">
      <g>
       <use style="stroke:#000000;stroke-width:0.8;" x="328.117301" xlink:href="#m662378f091" y="315.304875"/>
      </g>
     </g>
     <g id="text_5">
      <!-- 0.008 -->
      <defs>
       <path d="M 31.78125 34.625 
Q 24.75 34.625 20.71875 30.859375 
Q 16.703125 27.09375 16.703125 20.515625 
Q 16.703125 13.921875 20.71875 10.15625 
Q 24.75 6.390625 31.78125 6.390625 
Q 38.8125 6.390625 42.859375 10.171875 
Q 46.921875 13.96875 46.921875 20.515625 
Q 46.921875 27.09375 42.890625 30.859375 
Q 38.875 34.625 31.78125 34.625 
z
M 21.921875 38.8125 
Q 15.578125 40.375 12.03125 44.71875 
Q 8.5 49.078125 8.5 55.328125 
Q 8.5 64.0625 14.71875 69.140625 
Q 20.953125 74.21875 31.78125 74.21875 
Q 42.671875 74.21875 48.875 69.140625 
Q 55.078125 64.0625 55.078125 55.328125 
Q 55.078125 49.078125 51.53125 44.71875 
Q 48 40.375 41.703125 38.8125 
Q 48.828125 37.15625 52.796875 32.3125 
Q 56.78125 27.484375 56.78125 20.515625 
Q 56.78125 9.90625 50.3125 4.234375 
Q 43.84375 -1.421875 31.78125 -1.421875 
Q 19.734375 -1.421875 13.25 4.234375 
Q 6.78125 9.90625 6.78125 20.515625 
Q 6.78125 27.484375 10.78125 32.3125 
Q 14.796875 37.15625 21.921875 38.8125 
z
M 18.3125 54.390625 
Q 18.3125 48.734375 21.84375 45.5625 
Q 25.390625 42.390625 31.78125 42.390625 
Q 38.140625 42.390625 41.71875 45.5625 
Q 45.3125 48.734375 45.3125 54.390625 
Q 45.3125 60.0625 41.71875 63.234375 
Q 38.140625 66.40625 31.78125 66.40625 
Q 25.390625 66.40625 21.84375 63.234375 
Q 18.3125 60.0625 18.3125 54.390625 
z
" id="DejaVuSans-56"/>
      </defs>
      <g transform="translate(313.803239 329.903312)scale(0.1 -0.1)">
       <use xlink:href="#DejaVuSans-48"/>
       <use x="63.623047" xlink:href="#DejaVuSans-46"/>
       <use x="95.410156" xlink:href="#DejaVuSans-48"/>
       <use x="159.033203" xlink:href="#DejaVuSans-48"/>
       <use x="222.65625" xlink:href="#DejaVuSans-56"/>
      </g>
     </g>
    </g>
    <g id="xtick_6">
     <g id="line2d_11">
      <path clip-path="url(#p47786d915a)" d="M 393.04821 315.304875 
L 393.04821 49.192875 
" style="fill:none;stroke:#b0b0b0;stroke-linecap:square;stroke-width:0.8;"/>
     </g>
     <g id="line2d_12">
      <g>
       <use style="stroke:#000000;stroke-width:0.8;" x="393.04821" xlink:href="#m662378f091" y="315.304875"/>
      </g>
     </g>
     <g id="text_6">
      <!-- 0.010 -->
      <defs>
       <path d="M 12.40625 8.296875 
L 28.515625 8.296875 
L 28.515625 63.921875 
L 10.984375 60.40625 
L 10.984375 69.390625 
L 28.421875 72.90625 
L 38.28125 72.90625 
L 38.28125 8.296875 
L 54.390625 8.296875 
L 54.390625 0 
L 12.40625 0 
z
" id="DejaVuSans-49"/>
      </defs>
      <g transform="translate(378.734148 329.903312)scale(0.1 -0.1)">
       <use xlink:href="#DejaVuSans-48"/>
       <use x="63.623047" xlink:href="#DejaVuSans-46"/>
       <use x="95.410156" xlink:href="#DejaVuSans-48"/>
       <use x="159.033203" xlink:href="#DejaVuSans-49"/>
       <use x="222.65625" xlink:href="#DejaVuSans-48"/>
      </g>
     </g>
    </g>
    <g id="text_7">
     <!-- Time (s) -->
     <defs>
      <path d="M -0.296875 72.90625 
L 61.375 72.90625 
L 61.375 64.59375 
L 35.5 64.59375 
L 35.5 0 
L 25.59375 0 
L 25.59375 64.59375 
L -0.296875 64.59375 
z
" id="DejaVuSans-84"/>
      <path d="M 9.421875 54.6875 
L 18.40625 54.6875 
L 18.40625 0 
L 9.421875 0 
z
M 9.421875 75.984375 
L 18.40625 75.984375 
L 18.40625 64.59375 
L 9.421875 64.59375 
z
" id="DejaVuSans-105"/>
      <path d="M 52 44.1875 
Q 55.375 50.25 60.0625 53.125 
Q 64.75 56 71.09375 56 
Q 79.640625 56 84.28125 50.015625 
Q 88.921875 44.046875 88.921875 33.015625 
L 88.921875 0 
L 79.890625 0 
L 79.890625 32.71875 
Q 79.890625 40.578125 77.09375 44.375 
Q 74.3125 48.1875 68.609375 48.1875 
Q 61.625 48.1875 57.5625 43.546875 
Q 53.515625 38.921875 53.515625 30.90625 
L 53.515625 0 
L 44.484375 0 
L 44.484375 32.71875 
Q 44.484375 40.625 41.703125 44.40625 
Q 38.921875 48.1875 33.109375 48.1875 
Q 26.21875 48.1875 22.15625 43.53125 
Q 18.109375 38.875 18.109375 30.90625 
L 18.109375 0 
L 9.078125 0 
L 9.078125 54.6875 
L 18.109375 54.6875 
L 18.109375 46.1875 
Q 21.1875 51.21875 25.484375 53.609375 
Q 29.78125 56 35.6875 56 
Q 41.65625 56 45.828125 52.96875 
Q 50 49.953125 52 44.1875 
z
" id="DejaVuSans-109"/>
      <path d="M 56.203125 29.59375 
L 56.203125 25.203125 
L 14.890625 25.203125 
Q 15.484375 15.921875 20.484375 11.0625 
Q 25.484375 6.203125 34.421875 6.203125 
Q 39.59375 6.203125 44.453125 7.46875 
Q 49.3125 8.734375 54.109375 11.28125 
L 54.109375 2.78125 
Q 49.265625 0.734375 44.1875 -0.34375 
Q 39.109375 -1.421875 33.890625 -1.421875 
Q 20.796875 -1.421875 13.15625 6.1875 
Q 5.515625 13.8125 5.515625 26.8125 
Q 5.515625 40.234375 12.765625 48.109375 
Q 20.015625 56 32.328125 56 
Q 43.359375 56 49.78125 48.890625 
Q 56.203125 41.796875 56.203125 29.59375 
z
M 47.21875 32.234375 
Q 47.125 39.59375 43.09375 43.984375 
Q 39.0625 48.390625 32.421875 48.390625 
Q 24.90625 48.390625 20.390625 44.140625 
Q 15.875 39.890625 15.1875 32.171875 
z
" id="DejaVuSans-101"/>
      <path id="DejaVuSans-32"/>
      <path d="M 31 75.875 
Q 24.46875 64.65625 21.28125 53.65625 
Q 18.109375 42.671875 18.109375 31.390625 
Q 18.109375 20.125 21.3125 9.0625 
Q 24.515625 -2 31 -13.1875 
L 23.1875 -13.1875 
Q 15.875 -1.703125 12.234375 9.375 
Q 8.59375 20.453125 8.59375 31.390625 
Q 8.59375 42.28125 12.203125 53.3125 
Q 15.828125 64.359375 23.1875 75.875 
z
" id="DejaVuSans-40"/>
      <path d="M 44.28125 53.078125 
L 44.28125 44.578125 
Q 40.484375 46.53125 36.375 47.5 
Q 32.28125 48.484375 27.875 48.484375 
Q 21.1875 48.484375 17.84375 46.4375 
Q 14.5 44.390625 14.5 40.28125 
Q 14.5 37.15625 16.890625 35.375 
Q 19.28125 33.59375 26.515625 31.984375 
L 29.59375 31.296875 
Q 39.15625 29.25 43.1875 25.515625 
Q 47.21875 21.78125 47.21875 15.09375 
Q 47.21875 7.46875 41.1875 3.015625 
Q 35.15625 -1.421875 24.609375 -1.421875 
Q 20.21875 -1.421875 15.453125 -0.5625 
Q 10.6875 0.296875 5.421875 2 
L 5.421875 11.28125 
Q 10.40625 8.6875 15.234375 7.390625 
Q 20.0625 6.109375 24.8125 6.109375 
Q 31.15625 6.109375 34.5625 8.28125 
Q 37.984375 10.453125 37.984375 14.40625 
Q 37.984375 18.0625 35.515625 20.015625 
Q 33.0625 21.96875 24.703125 23.78125 
L 21.578125 24.515625 
Q 13.234375 26.265625 9.515625 29.90625 
Q 5.8125 33.546875 5.8125 39.890625 
Q 5.8125 47.609375 11.28125 51.796875 
Q 16.75 56 26.8125 56 
Q 31.78125 56 36.171875 55.265625 
Q 40.578125 54.546875 44.28125 53.078125 
z
" id="DejaVuSans-115"/>
      <path d="M 8.015625 75.875 
L 15.828125 75.875 
Q 23.140625 64.359375 26.78125 53.3125 
Q 30.421875 42.28125 30.421875 31.390625 
Q 30.421875 20.453125 26.78125 9.375 
Q 23.140625 -1.703125 15.828125 -13.1875 
L 8.015625 -13.1875 
Q 14.5 -2 17.703125 9.0625 
Q 20.90625 20.125 20.90625 31.390625 
Q 20.90625 42.671875 17.703125 53.65625 
Q 14.5 64.65625 8.015625 75.875 
z
" id="DejaVuSans-41"/>
     </defs>
     <g transform="translate(210.238125 343.581437)scale(0.1 -0.1)">
      <use xlink:href="#DejaVuSans-84"/>
      <use x="61.037109" xlink:href="#DejaVuSans-105"/>
      <use x="88.820312" xlink:href="#DejaVuSans-109"/>
      <use x="186.232422" xlink:href="#DejaVuSans-101"/>
      <use x="247.755859" xlink:href="#DejaVuSans-32"/>
      <use x="279.542969" xlink:href="#DejaVuSans-40"/>
      <use x="318.556641" xlink:href="#DejaVuSans-115"/>
      <use x="370.65625" xlink:href="#DejaVuSans-41"/>
     </g>
    </g>
   </g>
   <g id="matplotlib.axis_2">
    <g id="ytick_1">
     <g id="line2d_13">
      <path clip-path="url(#p47786d915a)" d="M 52.160938 304.653488 
L 409.280938 304.653488 
" style="fill:none;stroke:#b0b0b0;stroke-linecap:square;stroke-width:0.8;"/>
     </g>
     <g id="line2d_14">
      <defs>
       <path d="M 0 0 
L -3.5 0 
" id="m6c74d8eb94" style="stroke:#0000ff;stroke-width:0.8;"/>
      </defs>
      <g>
       <use style="fill:#0000ff;stroke:#0000ff;stroke-width:0.8;" x="52.160938" xlink:href="#m6c74d8eb94" y="304.653488"/>
      </g>
     </g>
     <g id="text_8">
      <!-- −2.0 -->
      <defs>
       <path d="M 10.59375 35.5 
L 73.1875 35.5 
L 73.1875 27.203125 
L 10.59375 27.203125 
z
" id="DejaVuSans-8722"/>
      </defs>
      <g style="fill:#0000ff;" transform="translate(20.878125 308.452707)scale(0.1 -0.1)">
       <use xlink:href="#DejaVuSans-8722"/>
       <use x="83.789062" xlink:href="#DejaVuSans-50"/>
       <use x="147.412109" xlink:href="#DejaVuSans-46"/>
       <use x="179.199219" xlink:href="#DejaVuSans-48"/>
      </g>
     </g>
    </g>
    <g id="ytick_2">
     <g id="line2d_15">
      <path clip-path="url(#p47786d915a)" d="M 52.160938 274.100973 
L 409.280938 274.100973 
" style="fill:none;stroke:#b0b0b0;stroke-linecap:square;stroke-width:0.8;"/>
     </g>
     <g id="line2d_16">
      <g>
       <use style="fill:#0000ff;stroke:#0000ff;stroke-width:0.8;" x="52.160938" xlink:href="#m6c74d8eb94" y="274.100973"/>
      </g>
     </g>
     <g id="text_9">
      <!-- −1.5 -->
      <defs>
       <path d="M 10.796875 72.90625 
L 49.515625 72.90625 
L 49.515625 64.59375 
L 19.828125 64.59375 
L 19.828125 46.734375 
Q 21.96875 47.46875 24.109375 47.828125 
Q 26.265625 48.1875 28.421875 48.1875 
Q 40.625 48.1875 47.75 41.5 
Q 54.890625 34.8125 54.890625 23.390625 
Q 54.890625 11.625 47.5625 5.09375 
Q 40.234375 -1.421875 26.90625 -1.421875 
Q 22.3125 -1.421875 17.546875 -0.640625 
Q 12.796875 0.140625 7.71875 1.703125 
L 7.71875 11.625 
Q 12.109375 9.234375 16.796875 8.0625 
Q 21.484375 6.890625 26.703125 6.890625 
Q 35.15625 6.890625 40.078125 11.328125 
Q 45.015625 15.765625 45.015625 23.390625 
Q 45.015625 31 40.078125 35.4375 
Q 35.15625 39.890625 26.703125 39.890625 
Q 22.75 39.890625 18.8125 39.015625 
Q 14.890625 38.140625 10.796875 36.28125 
z
" id="DejaVuSans-53"/>
      </defs>
      <g style="fill:#0000ff;" transform="translate(20.878125 277.900192)scale(0.1 -0.1)">
       <use xlink:href="#DejaVuSans-8722"/>
       <use x="83.789062" xlink:href="#DejaVuSans-49"/>
       <use x="147.412109" xlink:href="#DejaVuSans-46"/>
       <use x="179.199219" xlink:href="#DejaVuSans-53"/>
      </g>
     </g>
    </g>
    <g id="ytick_3">
     <g id="line2d_17">
      <path clip-path="url(#p47786d915a)" d="M 52.160938 243.548458 
L 409.280938 243.548458 
" style="fill:none;stroke:#b0b0b0;stroke-linecap:square;stroke-width:0.8;"/>
     </g>
     <g id="line2d_18">
      <g>
       <use style="fill:#0000ff;stroke:#0000ff;stroke-width:0.8;" x="52.160938" xlink:href="#m6c74d8eb94" y="243.548458"/>
      </g>
     </g>
     <g id="text_10">
      <!-- −1.0 -->
      <g style="fill:#0000ff;" transform="translate(20.878125 247.347677)scale(0.1 -0.1)">
       <use xlink:href="#DejaVuSans-8722"/>
       <use x="83.789062" xlink:href="#DejaVuSans-49"/>
       <use x="147.412109" xlink:href="#DejaVuSans-46"/>
       <use x="179.199219" xlink:href="#DejaVuSans-48"/>
      </g>
     </g>
    </g>
    <g id="ytick_4">
     <g id="line2d_19">
      <path clip-path="url(#p47786d915a)" d="M 52.160938 212.995943 
L 409.280938 212.995943 
" style="fill:none;stroke:#b0b0b0;stroke-linecap:square;stroke-width:0.8;"/>
     </g>
     <g id="line2d_20">
      <g>
       <use style="fill:#0000ff;stroke:#0000ff;stroke-width:0.8;" x="52.160938" xlink:href="#m6c74d8eb94" y="212.995943"/>
      </g>
     </g>
     <g id="text_11">
      <!-- −0.5 -->
      <g style="fill:#0000ff;" transform="translate(20.878125 216.795162)scale(0.1 -0.1)">
       <use xlink:href="#DejaVuSans-8722"/>
       <use x="83.789062" xlink:href="#DejaVuSans-48"/>
       <use x="147.412109" xlink:href="#DejaVuSans-46"/>
       <use x="179.199219" xlink:href="#DejaVuSans-53"/>
      </g>
     </g>
    </g>
    <g id="ytick_5">
     <g id="line2d_21">
      <path clip-path="url(#p47786d915a)" d="M 52.160938 182.443429 
L 409.280938 182.443429 
" style="fill:none;stroke:#b0b0b0;stroke-linecap:square;stroke-width:0.8;"/>
     </g>
     <g id="line2d_22">
      <g>
       <use style="fill:#0000ff;stroke:#0000ff;stroke-width:0.8;" x="52.160938" xlink:href="#m6c74d8eb94" y="182.443429"/>
      </g>
     </g>
     <g id="text_12">
      <!-- 0.0 -->
      <g style="fill:#0000ff;" transform="translate(29.257812 186.242647)scale(0.1 -0.1)">
       <use xlink:href="#DejaVuSans-48"/>
       <use x="63.623047" xlink:href="#DejaVuSans-46"/>
       <use x="95.410156" xlink:href="#DejaVuSans-48"/>
      </g>
     </g>
    </g>
    <g id="ytick_6">
     <g id="line2d_23">
      <path clip-path="url(#p47786d915a)" d="M 52.160938 151.890914 
L 409.280938 151.890914 
" style="fill:none;stroke:#b0b0b0;stroke-linecap:square;stroke-width:0.8;"/>
     </g>
     <g id="line2d_24">
      <g>
       <use style="fill:#0000ff;stroke:#0000ff;stroke-width:0.8;" x="52.160938" xlink:href="#m6c74d8eb94" y="151.890914"/>
      </g>
     </g>
     <g id="text_13">
      <!-- 0.5 -->
      <g style="fill:#0000ff;" transform="translate(29.257812 155.690133)scale(0.1 -0.1)">
       <use xlink:href="#DejaVuSans-48"/>
       <use x="63.623047" xlink:href="#DejaVuSans-46"/>
       <use x="95.410156" xlink:href="#DejaVuSans-53"/>
      </g>
     </g>
    </g>
    <g id="ytick_7">
     <g id="line2d_25">
      <path clip-path="url(#p47786d915a)" d="M 52.160938 121.338399 
L 409.280938 121.338399 
" style="fill:none;stroke:#b0b0b0;stroke-linecap:square;stroke-width:0.8;"/>
     </g>
     <g id="line2d_26">
      <g>
       <use style="fill:#0000ff;stroke:#0000ff;stroke-width:0.8;" x="52.160938" xlink:href="#m6c74d8eb94" y="121.338399"/>
      </g>
     </g>
     <g id="text_14">
      <!-- 1.0 -->
      <g style="fill:#0000ff;" transform="translate(29.257812 125.137618)scale(0.1 -0.1)">
       <use xlink:href="#DejaVuSans-49"/>
       <use x="63.623047" xlink:href="#DejaVuSans-46"/>
       <use x="95.410156" xlink:href="#DejaVuSans-48"/>
      </g>
     </g>
    </g>
    <g id="ytick_8">
     <g id="line2d_27">
      <path clip-path="url(#p47786d915a)" d="M 52.160938 90.785884 
L 409.280938 90.785884 
" style="fill:none;stroke:#b0b0b0;stroke-linecap:square;stroke-width:0.8;"/>
     </g>
     <g id="line2d_28">
      <g>
       <use style="fill:#0000ff;stroke:#0000ff;stroke-width:0.8;" x="52.160938" xlink:href="#m6c74d8eb94" y="90.785884"/>
      </g>
     </g>
     <g id="text_15">
      <!-- 1.5 -->
      <g style="fill:#0000ff;" transform="translate(29.257812 94.585103)scale(0.1 -0.1)">
       <use xlink:href="#DejaVuSans-49"/>
       <use x="63.623047" xlink:href="#DejaVuSans-46"/>
       <use x="95.410156" xlink:href="#DejaVuSans-53"/>
      </g>
     </g>
    </g>
    <g id="ytick_9">
     <g id="line2d_29">
      <path clip-path="url(#p47786d915a)" d="M 52.160938 60.23337 
L 409.280938 60.23337 
" style="fill:none;stroke:#b0b0b0;stroke-linecap:square;stroke-width:0.8;"/>
     </g>
     <g id="line2d_30">
      <g>
       <use style="fill:#0000ff;stroke:#0000ff;stroke-width:0.8;" x="52.160938" xlink:href="#m6c74d8eb94" y="60.23337"/>
      </g>
     </g>
     <g id="text_16">
      <!-- 2.0 -->
      <g style="fill:#0000ff;" transform="translate(29.257812 64.032588)scale(0.1 -0.1)">
       <use xlink:href="#DejaVuSans-50"/>
       <use x="63.623047" xlink:href="#DejaVuSans-46"/>
       <use x="95.410156" xlink:href="#DejaVuSans-48"/>
      </g>
     </g>
    </g>
    <g id="text_17">
     <!-- Voltage (V) -->
     <defs>
      <path d="M 28.609375 0 
L 0.78125 72.90625 
L 11.078125 72.90625 
L 34.1875 11.53125 
L 57.328125 72.90625 
L 67.578125 72.90625 
L 39.796875 0 
z
" id="DejaVuSans-86"/>
      <path d="M 30.609375 48.390625 
Q 23.390625 48.390625 19.1875 42.75 
Q 14.984375 37.109375 14.984375 27.296875 
Q 14.984375 17.484375 19.15625 11.84375 
Q 23.34375 6.203125 30.609375 6.203125 
Q 37.796875 6.203125 41.984375 11.859375 
Q 46.1875 17.53125 46.1875 27.296875 
Q 46.1875 37.015625 41.984375 42.703125 
Q 37.796875 48.390625 30.609375 48.390625 
z
M 30.609375 56 
Q 42.328125 56 49.015625 48.375 
Q 55.71875 40.765625 55.71875 27.296875 
Q 55.71875 13.875 49.015625 6.21875 
Q 42.328125 -1.421875 30.609375 -1.421875 
Q 18.84375 -1.421875 12.171875 6.21875 
Q 5.515625 13.875 5.515625 27.296875 
Q 5.515625 40.765625 12.171875 48.375 
Q 18.84375 56 30.609375 56 
z
" id="DejaVuSans-111"/>
      <path d="M 9.421875 75.984375 
L 18.40625 75.984375 
L 18.40625 0 
L 9.421875 0 
z
" id="DejaVuSans-108"/>
      <path d="M 18.3125 70.21875 
L 18.3125 54.6875 
L 36.8125 54.6875 
L 36.8125 47.703125 
L 18.3125 47.703125 
L 18.3125 18.015625 
Q 18.3125 11.328125 20.140625 9.421875 
Q 21.96875 7.515625 27.59375 7.515625 
L 36.8125 7.515625 
L 36.8125 0 
L 27.59375 0 
Q 17.1875 0 13.234375 3.875 
Q 9.28125 7.765625 9.28125 18.015625 
L 9.28125 47.703125 
L 2.6875 47.703125 
L 2.6875 54.6875 
L 9.28125 54.6875 
L 9.28125 70.21875 
z
" id="DejaVuSans-116"/>
      <path d="M 34.28125 27.484375 
Q 23.390625 27.484375 19.1875 25 
Q 14.984375 22.515625 14.984375 16.5 
Q 14.984375 11.71875 18.140625 8.90625 
Q 21.296875 6.109375 26.703125 6.109375 
Q 34.1875 6.109375 38.703125 11.40625 
Q 43.21875 16.703125 43.21875 25.484375 
L 43.21875 27.484375 
z
M 52.203125 31.203125 
L 52.203125 0 
L 43.21875 0 
L 43.21875 8.296875 
Q 40.140625 3.328125 35.546875 0.953125 
Q 30.953125 -1.421875 24.3125 -1.421875 
Q 15.921875 -1.421875 10.953125 3.296875 
Q 6 8.015625 6 15.921875 
Q 6 25.140625 12.171875 29.828125 
Q 18.359375 34.515625 30.609375 34.515625 
L 43.21875 34.515625 
L 43.21875 35.40625 
Q 43.21875 41.609375 39.140625 45 
Q 35.0625 48.390625 27.6875 48.390625 
Q 23 48.390625 18.546875 47.265625 
Q 14.109375 46.140625 10.015625 43.890625 
L 10.015625 52.203125 
Q 14.9375 54.109375 19.578125 55.046875 
Q 24.21875 56 28.609375 56 
Q 40.484375 56 46.34375 49.84375 
Q 52.203125 43.703125 52.203125 31.203125 
z
" id="DejaVuSans-97"/>
      <path d="M 45.40625 27.984375 
Q 45.40625 37.75 41.375 43.109375 
Q 37.359375 48.484375 30.078125 48.484375 
Q 22.859375 48.484375 18.828125 43.109375 
Q 14.796875 37.75 14.796875 27.984375 
Q 14.796875 18.265625 18.828125 12.890625 
Q 22.859375 7.515625 30.078125 7.515625 
Q 37.359375 7.515625 41.375 12.890625 
Q 45.40625 18.265625 45.40625 27.984375 
z
M 54.390625 6.78125 
Q 54.390625 -7.171875 48.1875 -13.984375 
Q 42 -20.796875 29.203125 -20.796875 
Q 24.46875 -20.796875 20.265625 -20.09375 
Q 16.0625 -19.390625 12.109375 -17.921875 
L 12.109375 -9.1875 
Q 16.0625 -11.328125 19.921875 -12.34375 
Q 23.78125 -13.375 27.78125 -13.375 
Q 36.625 -13.375 41.015625 -8.765625 
Q 45.40625 -4.15625 45.40625 5.171875 
L 45.40625 9.625 
Q 42.625 4.78125 38.28125 2.390625 
Q 33.9375 0 27.875 0 
Q 17.828125 0 11.671875 7.65625 
Q 5.515625 15.328125 5.515625 27.984375 
Q 5.515625 40.671875 11.671875 48.328125 
Q 17.828125 56 27.875 56 
Q 33.9375 56 38.28125 53.609375 
Q 42.625 51.21875 45.40625 46.390625 
L 45.40625 54.6875 
L 54.390625 54.6875 
z
" id="DejaVuSans-103"/>
     </defs>
     <g style="fill:#0000ff;" transform="translate(14.798437 210.298094)rotate(-90)scale(0.1 -0.1)">
      <use xlink:href="#DejaVuSans-86"/>
      <use x="68.298828" xlink:href="#DejaVuSans-111"/>
      <use x="129.480469" xlink:href="#DejaVuSans-108"/>
      <use x="157.263672" xlink:href="#DejaVuSans-116"/>
      <use x="196.472656" xlink:href="#DejaVuSans-97"/>
      <use x="257.751953" xlink:href="#DejaVuSans-103"/>
      <use x="321.228516" xlink:href="#DejaVuSans-101"/>
      <use x="382.751953" xlink:href="#DejaVuSans-32"/>
      <use x="414.539062" xlink:href="#DejaVuSans-40"/>
      <use x="453.552734" xlink:href="#DejaVuSans-86"/>
      <use x="521.960938" xlink:href="#DejaVuSans-41"/>
     </g>
    </g>
   </g>
   <g id="line2d_31">
    <path clip-path="url(#p47786d915a)" d="M 68.393665 182.442824 
L 70.811216 155.156515 
L 72.109834 142.585181 
L 73.083798 134.762495 
L 74.057761 128.628907 
L 74.70707 125.588248 
L 75.356379 123.444219 
L 76.005688 122.230634 
L 76.330343 121.979321 
L 76.654998 121.96663 
L 76.979652 122.192611 
L 77.304307 122.656372 
L 77.953616 124.288982 
L 78.602925 126.838713 
L 79.252234 130.265355 
L 80.226198 136.927736 
L 81.200161 145.202514 
L 82.498779 158.230113 
L 84.771361 184.141329 
L 87.043943 209.729132 
L 88.342561 222.300466 
L 89.316525 230.123152 
L 90.290488 236.25674 
L 90.939798 239.297399 
L 91.589107 241.441428 
L 92.238416 242.655014 
L 92.56307 242.906327 
L 92.887725 242.919018 
L 93.212379 242.693037 
L 93.537034 242.229276 
L 94.186343 240.596665 
L 94.835652 238.046934 
L 95.484961 234.620292 
L 96.458925 227.957911 
L 97.432888 219.683134 
L 98.731507 206.655534 
L 101.004088 180.744318 
L 103.27667 155.156515 
L 104.575288 142.585181 
L 105.549252 134.762495 
L 106.523216 128.628907 
L 107.172525 125.588248 
L 107.821834 123.444219 
L 108.471143 122.230633 
L 108.795798 121.979321 
L 109.120452 121.96663 
L 109.445107 122.192611 
L 109.769761 122.656372 
L 110.41907 124.288982 
L 111.068379 126.838713 
L 111.717688 130.265355 
L 112.691652 136.927736 
L 113.665616 145.202514 
L 114.964234 158.230113 
L 117.236816 184.141329 
L 119.509398 209.729132 
L 120.808016 222.300466 
L 121.781979 230.123152 
L 122.755943 236.25674 
L 123.405252 239.297399 
L 124.054561 241.441428 
L 124.70387 242.655014 
L 125.028525 242.906327 
L 125.353179 242.919018 
L 125.677834 242.693037 
L 126.002488 242.229276 
L 126.651798 240.596665 
L 127.301107 238.046934 
L 127.950416 234.620292 
L 128.924379 227.957911 
L 129.898343 219.683134 
L 131.196961 206.655534 
L 133.469543 180.744318 
L 135.742125 155.156515 
L 137.040743 142.585181 
L 138.014707 134.762495 
L 138.98867 128.628907 
L 139.637979 125.588248 
L 140.287288 123.444219 
L 140.936598 122.230633 
L 141.261252 121.979321 
L 141.585907 121.96663 
L 141.910561 122.192611 
L 142.235216 122.656372 
L 142.884525 124.288982 
L 143.533834 126.838713 
L 144.183143 130.265355 
L 145.157107 136.927736 
L 146.13107 145.202514 
L 147.429688 158.230113 
L 149.70227 184.141329 
L 151.974852 209.729132 
L 153.27347 222.300466 
L 154.247434 230.123152 
L 155.221398 236.25674 
L 155.870707 239.297399 
L 156.520016 241.441428 
L 157.169325 242.655014 
L 157.493979 242.906327 
L 157.818634 242.919018 
L 158.143288 242.693037 
L 158.467943 242.229276 
L 159.117252 240.596665 
L 159.766561 238.046934 
L 160.41587 234.620292 
L 161.389834 227.957911 
L 162.363798 219.683134 
L 163.662416 206.655534 
L 165.934998 180.744318 
L 168.207579 155.156515 
L 169.506198 142.585181 
L 170.480161 134.762495 
L 171.454125 128.628907 
L 172.103434 125.588248 
L 172.752743 123.444219 
L 173.402052 122.230633 
L 173.726707 121.979321 
L 174.051361 121.96663 
L 174.376016 122.192611 
L 174.70067 122.656372 
L 175.349979 124.288982 
L 175.999288 126.838713 
L 176.648598 130.265355 
L 177.622561 136.927736 
L 178.596525 145.202514 
L 179.895143 158.230113 
L 182.167725 184.141329 
L 184.440307 209.729132 
L 185.738925 222.300466 
L 186.712888 230.123152 
L 187.686852 236.25674 
L 188.336161 239.297399 
L 188.98547 241.441428 
L 189.634779 242.655014 
L 189.959434 242.906327 
L 190.284088 242.919018 
L 190.608743 242.693037 
L 190.933398 242.229276 
L 191.582707 240.596665 
L 192.232016 238.046934 
L 192.881325 234.620292 
L 193.855288 227.957911 
L 194.829252 219.683134 
L 196.12787 206.655534 
L 198.400452 180.744318 
L 200.673034 155.156515 
L 201.971652 142.585181 
L 202.945616 134.762495 
L 203.919579 128.628907 
L 204.568888 125.588248 
L 205.218198 123.444219 
L 205.867507 122.230633 
L 206.192161 121.979321 
L 206.516816 121.96663 
L 206.84147 122.192611 
L 207.166125 122.656372 
L 207.815434 124.288982 
L 208.464743 126.838713 
L 209.114052 130.265355 
L 210.088016 136.927736 
L 211.061979 145.202514 
L 212.360598 158.230113 
L 214.633179 184.141329 
L 216.905761 209.729132 
L 218.204379 222.300466 
L 219.178343 230.123152 
L 220.152307 236.25674 
L 220.801616 239.297399 
L 221.450925 241.441428 
L 222.100234 242.655014 
L 222.424888 242.906327 
L 222.749543 242.919018 
L 223.074198 242.693037 
L 223.398852 242.229276 
L 224.048161 240.596665 
L 224.69747 238.046934 
L 225.346779 234.620292 
L 226.320743 227.957911 
L 227.294707 219.683134 
L 228.593325 206.655534 
L 230.865907 180.744318 
L 233.138488 155.156515 
L 234.437107 142.585181 
L 235.41107 134.762495 
L 236.385034 128.628907 
L 237.034343 125.588248 
L 237.683652 123.444219 
L 238.332961 122.230633 
L 238.657616 121.979321 
L 238.98227 121.96663 
L 239.306925 122.192611 
L 239.631579 122.656372 
L 240.280888 124.288982 
L 240.930198 126.838713 
L 241.579507 130.265355 
L 242.55347 136.927736 
L 243.527434 145.202514 
L 244.826052 158.230113 
L 247.098634 184.141329 
L 249.371216 209.729132 
L 250.669834 222.300466 
L 251.643798 230.123152 
L 252.617761 236.25674 
L 253.26707 239.297399 
L 253.916379 241.441428 
L 254.565688 242.655014 
L 254.890343 242.906327 
L 255.214998 242.919018 
L 255.539652 242.693037 
L 255.864307 242.229276 
L 256.513616 240.596665 
L 257.162925 238.046934 
L 257.812234 234.620292 
L 258.786198 227.957911 
L 259.760161 219.683134 
L 261.058779 206.655534 
L 263.331361 180.744318 
L 265.603943 155.156515 
L 266.902561 142.585181 
L 267.876525 134.762495 
L 268.850488 128.628907 
L 269.499798 125.588248 
L 270.149107 123.444219 
L 270.798416 122.230633 
L 271.12307 121.979321 
L 271.447725 121.96663 
L 271.772379 122.192611 
L 272.097034 122.656372 
L 272.746343 124.288982 
L 273.395652 126.838713 
L 274.044961 130.265355 
L 275.018925 136.927736 
L 275.992888 145.202514 
L 277.291507 158.230113 
L 279.564088 184.141329 
L 281.83667 209.729132 
L 283.135288 222.300466 
L 284.109252 230.123152 
L 285.083216 236.25674 
L 285.732525 239.297399 
L 286.381834 241.441428 
L 287.031143 242.655014 
L 287.355798 242.906327 
L 287.680452 242.919018 
L 288.005107 242.693037 
L 288.329761 242.229276 
L 288.97907 240.596665 
L 289.628379 238.046934 
L 290.277688 234.620292 
L 291.251652 227.957911 
L 292.225616 219.683134 
L 293.524234 206.655534 
L 295.796816 180.744318 
L 298.069398 155.156515 
L 299.368016 142.585181 
L 300.341979 134.762495 
L 301.315943 128.628907 
L 301.965252 125.588248 
L 302.614561 123.444219 
L 303.26387 122.230633 
L 303.588525 121.979321 
L 303.913179 121.96663 
L 304.237834 122.192611 
L 304.562488 122.656372 
L 305.211798 124.288982 
L 305.861107 126.838713 
L 306.510416 130.265355 
L 307.484379 136.927736 
L 308.458343 145.202514 
L 309.756961 158.230113 
L 312.029543 184.141329 
L 314.302125 209.729132 
L 315.600743 222.300466 
L 316.574707 230.123152 
L 317.54867 236.25674 
L 318.197979 239.297399 
L 318.847288 241.441428 
L 319.496598 242.655014 
L 319.821252 242.906327 
L 320.145907 242.919018 
L 320.470561 242.693037 
L 320.795216 242.229276 
L 321.444525 240.596665 
L 322.093834 238.046934 
L 322.743143 234.620292 
L 323.717107 227.957911 
L 324.69107 219.683134 
L 325.989688 206.655534 
L 328.26227 180.744318 
L 330.534852 155.156515 
L 331.83347 142.585181 
L 332.807434 134.762495 
L 333.781398 128.628907 
L 334.430707 125.588248 
L 335.080016 123.444219 
L 335.729325 122.230633 
L 336.053979 121.979321 
L 336.378634 121.96663 
L 336.703288 122.192611 
L 337.027943 122.656372 
L 337.677252 124.288982 
L 338.326561 126.838713 
L 338.97587 130.265355 
L 339.949834 136.927736 
L 340.923798 145.202514 
L 342.222416 158.230113 
L 344.494998 184.141329 
L 346.767579 209.729132 
L 348.066198 222.300466 
L 349.040161 230.123152 
L 350.014125 236.25674 
L 350.663434 239.297399 
L 351.312743 241.441428 
L 351.962052 242.655014 
L 352.286707 242.906327 
L 352.611361 242.919018 
L 352.936016 242.693037 
L 353.26067 242.229276 
L 353.909979 240.596665 
L 354.559288 238.046934 
L 355.208598 234.620292 
L 356.182561 227.957911 
L 357.156525 219.683134 
L 358.455143 206.655534 
L 360.727725 180.744318 
L 363.000307 155.156515 
L 364.298925 142.585181 
L 365.272888 134.762495 
L 366.246852 128.628907 
L 366.896161 125.588248 
L 367.54547 123.444219 
L 368.194779 122.230633 
L 368.519434 121.979321 
L 368.844088 121.96663 
L 369.168743 122.192611 
L 369.493398 122.656372 
L 370.142707 124.288982 
L 370.792016 126.838713 
L 371.441325 130.265355 
L 372.415288 136.927736 
L 373.389252 145.202514 
L 374.68787 158.230113 
L 376.960452 184.141329 
L 379.233034 209.729132 
L 380.531652 222.300466 
L 381.505616 230.123152 
L 382.479579 236.25674 
L 383.128888 239.297399 
L 383.778198 241.441428 
L 384.427507 242.655014 
L 384.752161 242.906327 
L 385.076816 242.919018 
L 385.40147 242.693037 
L 385.726125 242.229276 
L 386.375434 240.596665 
L 387.024743 238.046934 
L 387.674052 234.620292 
L 388.648016 227.957911 
L 389.621979 219.683134 
L 390.920598 206.655534 
L 393.04821 182.441517 
L 393.04821 182.441517 
" style="fill:none;stroke:#1f77b4;stroke-linecap:square;stroke-width:1.5;"/>
   </g>
   <g id="line2d_32">
    <path clip-path="url(#p47786d915a)" d="M 68.393665 182.248875 
L 68.582133 186.267581 
L 70.811216 236.482467 
L 72.109834 261.679811 
L 73.083798 277.376825 
L 74.057761 289.703425 
L 74.70707 295.8277 
L 75.356379 300.160678 
L 76.005688 302.634062 
L 76.330343 303.160055 
L 76.654998 303.208875 
L 76.979652 302.780314 
L 77.304307 301.876082 
L 77.953616 298.656731 
L 78.602925 293.601627 
L 79.252234 286.79053 
L 80.226198 273.523648 
L 81.200161 257.023936 
L 82.498779 231.020778 
L 84.446707 186.849614 
L 87.043943 128.015327 
L 88.342561 102.817962 
L 89.316525 87.120893 
L 90.290488 74.794331 
L 90.939798 68.670053 
L 91.589107 64.337073 
L 92.238416 61.863688 
L 92.56307 61.337694 
L 92.887725 61.288875 
L 93.212379 61.717437 
L 93.537034 62.621668 
L 94.186343 65.84102 
L 94.835652 70.896125 
L 95.484961 77.707224 
L 96.458925 90.974116 
L 97.432888 107.47383 
L 98.731507 133.477015 
L 100.679434 177.648227 
L 103.27667 236.482385 
L 104.575288 261.679771 
L 105.549252 277.376848 
L 106.523216 289.703412 
L 107.172525 295.827692 
L 107.821834 300.160674 
L 108.471143 302.634059 
L 108.795798 303.160057 
L 109.120452 303.208874 
L 109.445107 302.780315 
L 109.769761 301.876082 
L 110.41907 298.656732 
L 111.068379 293.601629 
L 111.717688 286.790532 
L 112.691652 273.523646 
L 113.665616 257.023938 
L 114.964234 231.020781 
L 116.912161 186.849616 
L 119.509398 128.015329 
L 120.808016 102.817964 
L 121.781979 87.120892 
L 122.755943 74.794332 
L 123.405252 68.670054 
L 124.054561 64.337074 
L 124.70387 61.863689 
L 125.028525 61.337693 
L 125.353179 61.288876 
L 125.677834 61.717436 
L 126.002488 62.621669 
L 126.651798 65.84102 
L 127.301107 70.896126 
L 127.950416 77.707224 
L 128.924379 90.974115 
L 129.898343 107.473831 
L 131.196961 133.477015 
L 133.144888 177.648228 
L 135.742125 236.482385 
L 137.040743 261.679771 
L 138.014707 277.376848 
L 138.98867 289.703412 
L 139.637979 295.827692 
L 140.287288 300.160674 
L 140.936598 302.63406 
L 141.261252 303.160057 
L 141.585907 303.208874 
L 141.910561 302.780315 
L 142.235216 301.876082 
L 142.884525 298.656733 
L 143.533834 293.601629 
L 144.183143 286.790532 
L 145.157107 273.523646 
L 146.13107 257.023938 
L 147.429688 231.020781 
L 149.377616 186.849616 
L 151.974852 128.015329 
L 153.27347 102.817964 
L 154.247434 87.120892 
L 155.221398 74.794332 
L 155.870707 68.670054 
L 156.520016 64.337074 
L 157.169325 61.863689 
L 157.493979 61.337693 
L 157.818634 61.288876 
L 158.143288 61.717436 
L 158.467943 62.621669 
L 159.117252 65.84102 
L 159.766561 70.896126 
L 160.41587 77.707224 
L 161.389834 90.974115 
L 162.363798 107.473831 
L 163.662416 133.477015 
L 165.610343 177.648228 
L 168.207579 236.482385 
L 169.506198 261.679771 
L 170.480161 277.376848 
L 171.454125 289.703412 
L 172.103434 295.827692 
L 172.752743 300.160674 
L 173.402052 302.63406 
L 173.726707 303.160057 
L 174.051361 303.208874 
L 174.376016 302.780315 
L 174.70067 301.876082 
L 175.349979 298.656733 
L 175.999288 293.601629 
L 176.648598 286.790532 
L 177.622561 273.523646 
L 178.596525 257.023938 
L 179.895143 231.020781 
L 181.84307 186.849616 
L 184.440307 128.015329 
L 185.738925 102.817964 
L 186.712888 87.120892 
L 187.686852 74.794332 
L 188.336161 68.670054 
L 188.98547 64.337074 
L 189.634779 61.863689 
L 189.959434 61.337693 
L 190.284088 61.288876 
L 190.608743 61.717436 
L 190.933398 62.621669 
L 191.582707 65.84102 
L 192.232016 70.896126 
L 192.881325 77.707224 
L 193.855288 90.974115 
L 194.829252 107.473831 
L 196.12787 133.477015 
L 198.075798 177.648228 
L 200.673034 236.482385 
L 201.971652 261.679771 
L 202.945616 277.376848 
L 203.919579 289.703412 
L 204.568888 295.827692 
L 205.218198 300.160674 
L 205.867507 302.63406 
L 206.192161 303.160057 
L 206.516816 303.208874 
L 206.84147 302.780315 
L 207.166125 301.876082 
L 207.815434 298.656733 
L 208.464743 293.601629 
L 209.114052 286.790532 
L 210.088016 273.523646 
L 211.061979 257.023938 
L 212.360598 231.020781 
L 214.308525 186.849616 
L 216.905761 128.015329 
L 218.204379 102.817964 
L 219.178343 87.120892 
L 220.152307 74.794332 
L 220.801616 68.670054 
L 221.450925 64.337074 
L 222.100234 61.863689 
L 222.424888 61.337693 
L 222.749543 61.288876 
L 223.074198 61.717436 
L 223.398852 62.621669 
L 224.048161 65.84102 
L 224.69747 70.896126 
L 225.346779 77.707224 
L 226.320743 90.974115 
L 227.294707 107.473831 
L 228.593325 133.477015 
L 230.541252 177.648228 
L 233.138488 236.482385 
L 234.437107 261.679771 
L 235.41107 277.376848 
L 236.385034 289.703412 
L 237.034343 295.827692 
L 237.683652 300.160674 
L 238.332961 302.63406 
L 238.657616 303.160057 
L 238.98227 303.208874 
L 239.306925 302.780315 
L 239.631579 301.876082 
L 240.280888 298.656733 
L 240.930198 293.601629 
L 241.579507 286.790532 
L 242.55347 273.523646 
L 243.527434 257.023938 
L 244.826052 231.020781 
L 246.773979 186.849616 
L 249.371216 128.015329 
L 250.669834 102.817964 
L 251.643798 87.120892 
L 252.617761 74.794332 
L 253.26707 68.670054 
L 253.916379 64.337074 
L 254.565688 61.863689 
L 254.890343 61.337693 
L 255.214998 61.288876 
L 255.539652 61.717436 
L 255.864307 62.621669 
L 256.513616 65.84102 
L 257.162925 70.896126 
L 257.812234 77.707224 
L 258.786198 90.974115 
L 259.760161 107.473831 
L 261.058779 133.477015 
L 263.006707 177.648228 
L 265.603943 236.482385 
L 266.902561 261.679771 
L 267.876525 277.376848 
L 268.850488 289.703412 
L 269.499798 295.827692 
L 270.149107 300.160674 
L 270.798416 302.63406 
L 271.12307 303.160057 
L 271.447725 303.208874 
L 271.772379 302.780315 
L 272.097034 301.876082 
L 272.746343 298.656733 
L 273.395652 293.601629 
L 274.044961 286.790532 
L 275.018925 273.523646 
L 275.992888 257.023938 
L 277.291507 231.020781 
L 279.239434 186.849616 
L 281.83667 128.015329 
L 283.135288 102.817964 
L 284.109252 87.120892 
L 285.083216 74.794332 
L 285.732525 68.670054 
L 286.381834 64.337074 
L 287.031143 61.863689 
L 287.355798 61.337693 
L 287.680452 61.288876 
L 288.005107 61.717436 
L 288.329761 62.621669 
L 288.97907 65.84102 
L 289.628379 70.896126 
L 290.277688 77.707224 
L 291.251652 90.974115 
L 292.225616 107.473831 
L 293.524234 133.477015 
L 295.472161 177.648228 
L 298.069398 236.482385 
L 299.368016 261.679771 
L 300.341979 277.376848 
L 301.315943 289.703412 
L 301.965252 295.827692 
L 302.614561 300.160674 
L 303.26387 302.63406 
L 303.588525 303.160057 
L 303.913179 303.208874 
L 304.237834 302.780315 
L 304.562488 301.876082 
L 305.211798 298.656733 
L 305.861107 293.601629 
L 306.510416 286.790532 
L 307.484379 273.523646 
L 308.458343 257.023938 
L 309.756961 231.020781 
L 311.704888 186.849616 
L 314.302125 128.015329 
L 315.600743 102.817964 
L 316.574707 87.120892 
L 317.54867 74.794332 
L 318.197979 68.670054 
L 318.847288 64.337074 
L 319.496598 61.863689 
L 319.821252 61.337693 
L 320.145907 61.288876 
L 320.470561 61.717436 
L 320.795216 62.621669 
L 321.444525 65.84102 
L 322.093834 70.896126 
L 322.743143 77.707224 
L 323.717107 90.974115 
L 324.69107 107.473831 
L 325.989688 133.477015 
L 327.937616 177.648228 
L 330.534852 236.482385 
L 331.83347 261.679771 
L 332.807434 277.376848 
L 333.781398 289.703412 
L 334.430707 295.827692 
L 335.080016 300.160674 
L 335.729325 302.63406 
L 336.053979 303.160057 
L 336.378634 303.208874 
L 336.703288 302.780315 
L 337.027943 301.876082 
L 337.677252 298.656733 
L 338.326561 293.601629 
L 338.97587 286.790532 
L 339.949834 273.523646 
L 340.923798 257.023938 
L 342.222416 231.020781 
L 344.170343 186.849616 
L 346.767579 128.015329 
L 348.066198 102.817964 
L 349.040161 87.120892 
L 350.014125 74.794332 
L 350.663434 68.670054 
L 351.312743 64.337074 
L 351.962052 61.863689 
L 352.286707 61.337693 
L 352.611361 61.288876 
L 352.936016 61.717436 
L 353.26067 62.621669 
L 353.909979 65.84102 
L 354.559288 70.896126 
L 355.208598 77.707224 
L 356.182561 90.974115 
L 357.156525 107.473831 
L 358.455143 133.477015 
L 360.40307 177.648228 
L 363.000307 236.482385 
L 364.298925 261.679771 
L 365.272888 277.376848 
L 366.246852 289.703412 
L 366.896161 295.827692 
L 367.54547 300.160674 
L 368.194779 302.63406 
L 368.519434 303.160057 
L 368.844088 303.208874 
L 369.168743 302.780315 
L 369.493398 301.876082 
L 370.142707 298.656733 
L 370.792016 293.601629 
L 371.441325 286.790532 
L 372.415288 273.523646 
L 373.389252 257.023938 
L 374.68787 231.020781 
L 376.635798 186.849616 
L 379.233034 128.015329 
L 380.531652 102.817964 
L 381.505616 87.120892 
L 382.479579 74.794332 
L 383.128888 68.670054 
L 383.778198 64.337074 
L 384.427507 61.863689 
L 384.752161 61.337693 
L 385.076816 61.288876 
L 385.40147 61.717436 
L 385.726125 62.621669 
L 386.375434 65.84102 
L 387.024743 70.896126 
L 387.674052 77.707224 
L 388.648016 90.974115 
L 389.621979 107.473831 
L 390.920598 133.477015 
L 393.04821 181.854592 
L 393.04821 181.854592 
" style="fill:none;stroke:#ff7f0e;stroke-linecap:square;stroke-width:1.5;"/>
   </g>
   <g id="patch_3">
    <path d="M 52.160938 315.304875 
L 52.160938 49.192875 
" style="fill:none;stroke:#000000;stroke-linecap:square;stroke-linejoin:miter;stroke-width:0.8;"/>
   </g>
   <g id="patch_4">
    <path d="M 409.280938 315.304875 
L 409.280938 49.192875 
" style="fill:none;stroke:#000000;stroke-linecap:square;stroke-linejoin:miter;stroke-width:0.8;"/>
   </g>
   <g id="patch_5">
    <path d="M 52.160938 315.304875 
L 409.280938 315.304875 
" style="fill:none;stroke:#000000;stroke-linecap:square;stroke-linejoin:miter;stroke-width:0.8;"/>
   </g>
   <g id="patch_6">
    <path d="M 52.160938 49.192875 
L 409.280938 49.192875 
" style="fill:none;stroke:#000000;stroke-linecap:square;stroke-linejoin:miter;stroke-width:0.8;"/>
   </g>
   <g id="legend_1">
    <g id="patch_7">
     <path d="M 59.160938 86.549125 
L 113.45625 86.549125 
Q 115.45625 86.549125 115.45625 84.549125 
L 115.45625 56.192875 
Q 115.45625 54.192875 113.45625 54.192875 
L 59.160938 54.192875 
Q 57.160938 54.192875 57.160938 56.192875 
L 57.160938 84.549125 
Q 57.160938 86.549125 59.160938 86.549125 
z
" style="fill:#ffffff;opacity:0.8;stroke:#cccccc;stroke-linejoin:miter;"/>
    </g>
    <g id="line2d_33">
     <path d="M 61.160938 62.291312 
L 81.160938 62.291312 
" style="fill:none;stroke:#1f77b4;stroke-linecap:square;stroke-width:1.5;"/>
    </g>
    <g id="line2d_34"/>
    <g id="text_18">
     <!-- vin -->
     <defs>
      <path d="M 2.984375 54.6875 
L 12.5 54.6875 
L 29.59375 8.796875 
L 46.6875 54.6875 
L 56.203125 54.6875 
L 35.6875 0 
L 23.484375 0 
z
" id="DejaVuSans-118"/>
      <path d="M 54.890625 33.015625 
L 54.890625 0 
L 45.90625 0 
L 45.90625 32.71875 
Q 45.90625 40.484375 42.875 44.328125 
Q 39.84375 48.1875 33.796875 48.1875 
Q 26.515625 48.1875 22.3125 43.546875 
Q 18.109375 38.921875 18.109375 30.90625 
L 18.109375 0 
L 9.078125 0 
L 9.078125 54.6875 
L 18.109375 54.6875 
L 18.109375 46.1875 
Q 21.34375 51.125 25.703125 53.5625 
Q 30.078125 56 35.796875 56 
Q 45.21875 56 50.046875 50.171875 
Q 54.890625 44.34375 54.890625 33.015625 
z
" id="DejaVuSans-110"/>
     </defs>
     <g transform="translate(89.160938 65.791312)scale(0.1 -0.1)">
      <use xlink:href="#DejaVuSans-118"/>
      <use x="59.179688" xlink:href="#DejaVuSans-105"/>
      <use x="86.962891" xlink:href="#DejaVuSans-110"/>
     </g>
    </g>
    <g id="line2d_35">
     <path d="M 61.160938 76.969437 
L 81.160938 76.969437 
" style="fill:none;stroke:#ff7f0e;stroke-linecap:square;stroke-width:1.5;"/>
    </g>
    <g id="line2d_36"/>
    <g id="text_19">
     <!-- vout -->
     <defs>
      <path d="M 8.5 21.578125 
L 8.5 54.6875 
L 17.484375 54.6875 
L 17.484375 21.921875 
Q 17.484375 14.15625 20.5 10.265625 
Q 23.53125 6.390625 29.59375 6.390625 
Q 36.859375 6.390625 41.078125 11.03125 
Q 45.3125 15.671875 45.3125 23.6875 
L 45.3125 54.6875 
L 54.296875 54.6875 
L 54.296875 0 
L 45.3125 0 
L 45.3125 8.40625 
Q 42.046875 3.421875 37.71875 1 
Q 33.40625 -1.421875 27.6875 -1.421875 
Q 18.265625 -1.421875 13.375 4.4375 
Q 8.5 10.296875 8.5 21.578125 
z
M 31.109375 56 
z
" id="DejaVuSans-117"/>
     </defs>
     <g transform="translate(89.160938 80.469437)scale(0.1 -0.1)">
      <use xlink:href="#DejaVuSans-118"/>
      <use x="59.179688" xlink:href="#DejaVuSans-111"/>
      <use x="120.361328" xlink:href="#DejaVuSans-117"/>
      <use x="183.740234" xlink:href="#DejaVuSans-116"/>
     </g>
    </g>
   </g>
  </g>
  <g id="axes_2">
   <g id="matplotlib.axis_3">
    <g id="ytick_10">
     <g id="line2d_37">
      <defs>
       <path d="M 0 0 
L 3.5 0 
" id="mccb4aa6bce" style="stroke:#ffffff;stroke-width:0.8;"/>
      </defs>
      <g>
       <use style="fill:#ffffff;stroke:#ffffff;stroke-width:0.8;" x="409.280938" xlink:href="#mccb4aa6bce" y="279.016875"/>
      </g>
     </g>
     <g id="text_20">
      <!-- −0.04 -->
      <g style="fill:#ffffff;" transform="translate(416.280938 282.816094)scale(0.1 -0.1)">
       <use xlink:href="#DejaVuSans-8722"/>
       <use x="83.789062" xlink:href="#DejaVuSans-48"/>
       <use x="147.412109" xlink:href="#DejaVuSans-46"/>
       <use x="179.199219" xlink:href="#DejaVuSans-48"/>
       <use x="242.822266" xlink:href="#DejaVuSans-52"/>
      </g>
     </g>
    </g>
    <g id="ytick_11">
     <g id="line2d_38">
      <g>
       <use style="fill:#ffffff;stroke:#ffffff;stroke-width:0.8;" x="409.280938" xlink:href="#mccb4aa6bce" y="230.632875"/>
      </g>
     </g>
     <g id="text_21">
      <!-- −0.02 -->
      <g style="fill:#ffffff;" transform="translate(416.280938 234.432094)scale(0.1 -0.1)">
       <use xlink:href="#DejaVuSans-8722"/>
       <use x="83.789062" xlink:href="#DejaVuSans-48"/>
       <use x="147.412109" xlink:href="#DejaVuSans-46"/>
       <use x="179.199219" xlink:href="#DejaVuSans-48"/>
       <use x="242.822266" xlink:href="#DejaVuSans-50"/>
      </g>
     </g>
    </g>
    <g id="ytick_12">
     <g id="line2d_39">
      <g>
       <use style="fill:#ffffff;stroke:#ffffff;stroke-width:0.8;" x="409.280938" xlink:href="#mccb4aa6bce" y="182.248875"/>
      </g>
     </g>
     <g id="text_22">
      <!-- 0.00 -->
      <g style="fill:#ffffff;" transform="translate(416.280938 186.048094)scale(0.1 -0.1)">
       <use xlink:href="#DejaVuSans-48"/>
       <use x="63.623047" xlink:href="#DejaVuSans-46"/>
       <use x="95.410156" xlink:href="#DejaVuSans-48"/>
       <use x="159.033203" xlink:href="#DejaVuSans-48"/>
      </g>
     </g>
    </g>
    <g id="ytick_13">
     <g id="line2d_40">
      <g>
       <use style="fill:#ffffff;stroke:#ffffff;stroke-width:0.8;" x="409.280938" xlink:href="#mccb4aa6bce" y="133.864875"/>
      </g>
     </g>
     <g id="text_23">
      <!-- 0.02 -->
      <g style="fill:#ffffff;" transform="translate(416.280938 137.664094)scale(0.1 -0.1)">
       <use xlink:href="#DejaVuSans-48"/>
       <use x="63.623047" xlink:href="#DejaVuSans-46"/>
       <use x="95.410156" xlink:href="#DejaVuSans-48"/>
       <use x="159.033203" xlink:href="#DejaVuSans-50"/>
      </g>
     </g>
    </g>
    <g id="ytick_14">
     <g id="line2d_41">
      <g>
       <use style="fill:#ffffff;stroke:#ffffff;stroke-width:0.8;" x="409.280938" xlink:href="#mccb4aa6bce" y="85.480875"/>
      </g>
     </g>
     <g id="text_24">
      <!-- 0.04 -->
      <g style="fill:#ffffff;" transform="translate(416.280938 89.280094)scale(0.1 -0.1)">
       <use xlink:href="#DejaVuSans-48"/>
       <use x="63.623047" xlink:href="#DejaVuSans-46"/>
       <use x="95.410156" xlink:href="#DejaVuSans-48"/>
       <use x="159.033203" xlink:href="#DejaVuSans-52"/>
      </g>
     </g>
    </g>
    <g id="text_25">
     <!-- Current (A) -->
     <defs>
      <path d="M 64.40625 67.28125 
L 64.40625 56.890625 
Q 59.421875 61.53125 53.78125 63.8125 
Q 48.140625 66.109375 41.796875 66.109375 
Q 29.296875 66.109375 22.65625 58.46875 
Q 16.015625 50.828125 16.015625 36.375 
Q 16.015625 21.96875 22.65625 14.328125 
Q 29.296875 6.6875 41.796875 6.6875 
Q 48.140625 6.6875 53.78125 8.984375 
Q 59.421875 11.28125 64.40625 15.921875 
L 64.40625 5.609375 
Q 59.234375 2.09375 53.4375 0.328125 
Q 47.65625 -1.421875 41.21875 -1.421875 
Q 24.65625 -1.421875 15.125 8.703125 
Q 5.609375 18.84375 5.609375 36.375 
Q 5.609375 53.953125 15.125 64.078125 
Q 24.65625 74.21875 41.21875 74.21875 
Q 47.75 74.21875 53.53125 72.484375 
Q 59.328125 70.75 64.40625 67.28125 
z
" id="DejaVuSans-67"/>
      <path d="M 41.109375 46.296875 
Q 39.59375 47.171875 37.8125 47.578125 
Q 36.03125 48 33.890625 48 
Q 26.265625 48 22.1875 43.046875 
Q 18.109375 38.09375 18.109375 28.8125 
L 18.109375 0 
L 9.078125 0 
L 9.078125 54.6875 
L 18.109375 54.6875 
L 18.109375 46.1875 
Q 20.953125 51.171875 25.484375 53.578125 
Q 30.03125 56 36.53125 56 
Q 37.453125 56 38.578125 55.875 
Q 39.703125 55.765625 41.0625 55.515625 
z
" id="DejaVuSans-114"/>
      <path d="M 34.1875 63.1875 
L 20.796875 26.90625 
L 47.609375 26.90625 
z
M 28.609375 72.90625 
L 39.796875 72.90625 
L 67.578125 0 
L 57.328125 0 
L 50.6875 18.703125 
L 17.828125 18.703125 
L 11.1875 0 
L 0.78125 0 
z
" id="DejaVuSans-65"/>
     </defs>
     <g style="fill:#ffffff;" transform="translate(458.524688 210.134031)rotate(-90)scale(0.1 -0.1)">
      <use xlink:href="#DejaVuSans-67"/>
      <use x="69.824219" xlink:href="#DejaVuSans-117"/>
      <use x="133.203125" xlink:href="#DejaVuSans-114"/>
      <use x="174.300781" xlink:href="#DejaVuSans-114"/>
      <use x="215.382812" xlink:href="#DejaVuSans-101"/>
      <use x="276.90625" xlink:href="#DejaVuSans-110"/>
      <use x="340.285156" xlink:href="#DejaVuSans-116"/>
      <use x="379.494141" xlink:href="#DejaVuSans-32"/>
      <use x="411.28125" xlink:href="#DejaVuSans-40"/>
      <use x="450.294922" xlink:href="#DejaVuSans-65"/>
      <use x="518.703125" xlink:href="#DejaVuSans-41"/>
     </g>
    </g>
   </g>
   <g id="patch_8">
    <path d="M 52.160938 315.304875 
L 52.160938 49.192875 
" style="fill:none;stroke:#000000;stroke-linecap:square;stroke-linejoin:miter;stroke-width:0.8;"/>
   </g>
   <g id="patch_9">
    <path d="M 409.280938 315.304875 
L 409.280938 49.192875 
" style="fill:none;stroke:#000000;stroke-linecap:square;stroke-linejoin:miter;stroke-width:0.8;"/>
   </g>
   <g id="patch_10">
    <path d="M 52.160938 315.304875 
L 409.280938 315.304875 
" style="fill:none;stroke:#000000;stroke-linecap:square;stroke-linejoin:miter;stroke-width:0.8;"/>
   </g>
   <g id="patch_11">
    <path d="M 52.160938 49.192875 
L 409.280938 49.192875 
" style="fill:none;stroke:#000000;stroke-linecap:square;stroke-linejoin:miter;stroke-width:0.8;"/>
   </g>
   <g id="text_26">
    <!-- ** inverting amplifier with opamp (lm741) - - simulation circuit ** -->
    <defs>
     <path d="M 47.015625 60.890625 
L 29.5 51.421875 
L 47.015625 41.890625 
L 44.1875 37.109375 
L 27.78125 47.015625 
L 27.78125 28.609375 
L 22.21875 28.609375 
L 22.21875 47.015625 
L 5.8125 37.109375 
L 2.984375 41.890625 
L 20.515625 51.421875 
L 2.984375 60.890625 
L 5.8125 65.71875 
L 22.21875 55.8125 
L 22.21875 74.21875 
L 27.78125 74.21875 
L 27.78125 55.8125 
L 44.1875 65.71875 
z
" id="DejaVuSans-42"/>
     <path d="M 18.109375 8.203125 
L 18.109375 -20.796875 
L 9.078125 -20.796875 
L 9.078125 54.6875 
L 18.109375 54.6875 
L 18.109375 46.390625 
Q 20.953125 51.265625 25.265625 53.625 
Q 29.59375 56 35.59375 56 
Q 45.5625 56 51.78125 48.09375 
Q 58.015625 40.1875 58.015625 27.296875 
Q 58.015625 14.40625 51.78125 6.484375 
Q 45.5625 -1.421875 35.59375 -1.421875 
Q 29.59375 -1.421875 25.265625 0.953125 
Q 20.953125 3.328125 18.109375 8.203125 
z
M 48.6875 27.296875 
Q 48.6875 37.203125 44.609375 42.84375 
Q 40.53125 48.484375 33.40625 48.484375 
Q 26.265625 48.484375 22.1875 42.84375 
Q 18.109375 37.203125 18.109375 27.296875 
Q 18.109375 17.390625 22.1875 11.75 
Q 26.265625 6.109375 33.40625 6.109375 
Q 40.53125 6.109375 44.609375 11.75 
Q 48.6875 17.390625 48.6875 27.296875 
z
" id="DejaVuSans-112"/>
     <path d="M 37.109375 75.984375 
L 37.109375 68.5 
L 28.515625 68.5 
Q 23.6875 68.5 21.796875 66.546875 
Q 19.921875 64.59375 19.921875 59.515625 
L 19.921875 54.6875 
L 34.71875 54.6875 
L 34.71875 47.703125 
L 19.921875 47.703125 
L 19.921875 0 
L 10.890625 0 
L 10.890625 47.703125 
L 2.296875 47.703125 
L 2.296875 54.6875 
L 10.890625 54.6875 
L 10.890625 58.5 
Q 10.890625 67.625 15.140625 71.796875 
Q 19.390625 75.984375 28.609375 75.984375 
z
" id="DejaVuSans-102"/>
     <path d="M 4.203125 54.6875 
L 13.1875 54.6875 
L 24.421875 12.015625 
L 35.59375 54.6875 
L 46.1875 54.6875 
L 57.421875 12.015625 
L 68.609375 54.6875 
L 77.59375 54.6875 
L 63.28125 0 
L 52.6875 0 
L 40.921875 44.828125 
L 29.109375 0 
L 18.5 0 
z
" id="DejaVuSans-119"/>
     <path d="M 54.890625 33.015625 
L 54.890625 0 
L 45.90625 0 
L 45.90625 32.71875 
Q 45.90625 40.484375 42.875 44.328125 
Q 39.84375 48.1875 33.796875 48.1875 
Q 26.515625 48.1875 22.3125 43.546875 
Q 18.109375 38.921875 18.109375 30.90625 
L 18.109375 0 
L 9.078125 0 
L 9.078125 75.984375 
L 18.109375 75.984375 
L 18.109375 46.1875 
Q 21.34375 51.125 25.703125 53.5625 
Q 30.078125 56 35.796875 56 
Q 45.21875 56 50.046875 50.171875 
Q 54.890625 44.34375 54.890625 33.015625 
z
" id="DejaVuSans-104"/>
     <path d="M 8.203125 72.90625 
L 55.078125 72.90625 
L 55.078125 68.703125 
L 28.609375 0 
L 18.3125 0 
L 43.21875 64.59375 
L 8.203125 64.59375 
z
" id="DejaVuSans-55"/>
     <path d="M 4.890625 31.390625 
L 31.203125 31.390625 
L 31.203125 23.390625 
L 4.890625 23.390625 
z
" id="DejaVuSans-45"/>
     <path d="M 48.78125 52.59375 
L 48.78125 44.1875 
Q 44.96875 46.296875 41.140625 47.34375 
Q 37.3125 48.390625 33.40625 48.390625 
Q 24.65625 48.390625 19.8125 42.84375 
Q 14.984375 37.3125 14.984375 27.296875 
Q 14.984375 17.28125 19.8125 11.734375 
Q 24.65625 6.203125 33.40625 6.203125 
Q 37.3125 6.203125 41.140625 7.25 
Q 44.96875 8.296875 48.78125 10.40625 
L 48.78125 2.09375 
Q 45.015625 0.34375 40.984375 -0.53125 
Q 36.96875 -1.421875 32.421875 -1.421875 
Q 20.0625 -1.421875 12.78125 6.34375 
Q 5.515625 14.109375 5.515625 27.296875 
Q 5.515625 40.671875 12.859375 48.328125 
Q 20.21875 56 33.015625 56 
Q 37.15625 56 41.109375 55.140625 
Q 45.0625 54.296875 48.78125 52.59375 
z
" id="DejaVuSans-99"/>
    </defs>
    <g transform="translate(36.806563 16.318125)scale(0.12 -0.12)">
     <use xlink:href="#DejaVuSans-42"/>
     <use x="50" xlink:href="#DejaVuSans-42"/>
     <use x="100" xlink:href="#DejaVuSans-32"/>
     <use x="131.787109" xlink:href="#DejaVuSans-105"/>
     <use x="159.570312" xlink:href="#DejaVuSans-110"/>
     <use x="222.949219" xlink:href="#DejaVuSans-118"/>
     <use x="282.128906" xlink:href="#DejaVuSans-101"/>
     <use x="343.652344" xlink:href="#DejaVuSans-114"/>
     <use x="384.765625" xlink:href="#DejaVuSans-116"/>
     <use x="423.974609" xlink:href="#DejaVuSans-105"/>
     <use x="451.757812" xlink:href="#DejaVuSans-110"/>
     <use x="515.136719" xlink:href="#DejaVuSans-103"/>
     <use x="578.613281" xlink:href="#DejaVuSans-32"/>
     <use x="610.400391" xlink:href="#DejaVuSans-97"/>
     <use x="671.679688" xlink:href="#DejaVuSans-109"/>
     <use x="769.091797" xlink:href="#DejaVuSans-112"/>
     <use x="832.568359" xlink:href="#DejaVuSans-108"/>
     <use x="860.351562" xlink:href="#DejaVuSans-105"/>
     <use x="888.134766" xlink:href="#DejaVuSans-102"/>
     <use x="923.339844" xlink:href="#DejaVuSans-105"/>
     <use x="951.123047" xlink:href="#DejaVuSans-101"/>
     <use x="1012.646484" xlink:href="#DejaVuSans-114"/>
     <use x="1053.759766" xlink:href="#DejaVuSans-32"/>
     <use x="1085.546875" xlink:href="#DejaVuSans-119"/>
     <use x="1167.333984" xlink:href="#DejaVuSans-105"/>
     <use x="1195.117188" xlink:href="#DejaVuSans-116"/>
     <use x="1234.326172" xlink:href="#DejaVuSans-104"/>
     <use x="1297.705078" xlink:href="#DejaVuSans-32"/>
     <use x="1329.492188" xlink:href="#DejaVuSans-111"/>
     <use x="1390.673828" xlink:href="#DejaVuSans-112"/>
     <use x="1454.150391" xlink:href="#DejaVuSans-97"/>
     <use x="1515.429688" xlink:href="#DejaVuSans-109"/>
     <use x="1612.841797" xlink:href="#DejaVuSans-112"/>
     <use x="1676.318359" xlink:href="#DejaVuSans-32"/>
     <use x="1708.105469" xlink:href="#DejaVuSans-40"/>
     <use x="1747.119141" xlink:href="#DejaVuSans-108"/>
     <use x="1774.902344" xlink:href="#DejaVuSans-109"/>
     <use x="1872.314453" xlink:href="#DejaVuSans-55"/>
     <use x="1935.9375" xlink:href="#DejaVuSans-52"/>
     <use x="1999.560547" xlink:href="#DejaVuSans-49"/>
     <use x="2063.183594" xlink:href="#DejaVuSans-41"/>
     <use x="2102.197266" xlink:href="#DejaVuSans-32"/>
     <use x="2133.984375" xlink:href="#DejaVuSans-45"/>
     <use x="2170.068359" xlink:href="#DejaVuSans-45"/>
     <use x="2206.152344" xlink:href="#DejaVuSans-32"/>
     <use x="2237.939453" xlink:href="#DejaVuSans-115"/>
     <use x="2290.039062" xlink:href="#DejaVuSans-105"/>
     <use x="2317.822266" xlink:href="#DejaVuSans-109"/>
     <use x="2415.234375" xlink:href="#DejaVuSans-117"/>
     <use x="2478.613281" xlink:href="#DejaVuSans-108"/>
     <use x="2506.396484" xlink:href="#DejaVuSans-97"/>
     <use x="2567.675781" xlink:href="#DejaVuSans-116"/>
     <use x="2606.884766" xlink:href="#DejaVuSans-105"/>
     <use x="2634.667969" xlink:href="#DejaVuSans-111"/>
     <use x="2695.849609" xlink:href="#DejaVuSans-110"/>
     <use x="2759.228516" xlink:href="#DejaVuSans-32"/>
     <use x="2791.015625" xlink:href="#DejaVuSans-99"/>
     <use x="2845.996094" xlink:href="#DejaVuSans-105"/>
     <use x="2873.779297" xlink:href="#DejaVuSans-114"/>
     <use x="2914.861328" xlink:href="#DejaVuSans-99"/>
     <use x="2969.841797" xlink:href="#DejaVuSans-117"/>
     <use x="3033.220703" xlink:href="#DejaVuSans-105"/>
     <use x="3061.003906" xlink:href="#DejaVuSans-116"/>
     <use x="3100.212891" xlink:href="#DejaVuSans-32"/>
     <use x="3132" xlink:href="#DejaVuSans-42"/>
     <use x="3182" xlink:href="#DejaVuSans-42"/>
    </g>
    <!--  -->
    <g transform="translate(230.720938 29.7555)scale(0.12 -0.12)"/>
    <!-- Transient Analysis, Mon Jun  1 19:48:06  2020 -->
    <defs>
     <path d="M 32.171875 -5.078125 
Q 28.375 -14.84375 24.75 -17.8125 
Q 21.140625 -20.796875 15.09375 -20.796875 
L 7.90625 -20.796875 
L 7.90625 -13.28125 
L 13.1875 -13.28125 
Q 16.890625 -13.28125 18.9375 -11.515625 
Q 21 -9.765625 23.484375 -3.21875 
L 25.09375 0.875 
L 2.984375 54.6875 
L 12.5 54.6875 
L 29.59375 11.921875 
L 46.6875 54.6875 
L 56.203125 54.6875 
z
" id="DejaVuSans-121"/>
     <path d="M 11.71875 12.40625 
L 22.015625 12.40625 
L 22.015625 4 
L 14.015625 -11.625 
L 7.71875 -11.625 
L 11.71875 4 
z
" id="DejaVuSans-44"/>
     <path d="M 9.8125 72.90625 
L 24.515625 72.90625 
L 43.109375 23.296875 
L 61.8125 72.90625 
L 76.515625 72.90625 
L 76.515625 0 
L 66.890625 0 
L 66.890625 64.015625 
L 48.09375 14.015625 
L 38.1875 14.015625 
L 19.390625 64.015625 
L 19.390625 0 
L 9.8125 0 
z
" id="DejaVuSans-77"/>
     <path d="M 9.8125 72.90625 
L 19.671875 72.90625 
L 19.671875 5.078125 
Q 19.671875 -8.109375 14.671875 -14.0625 
Q 9.671875 -20.015625 -1.421875 -20.015625 
L -5.171875 -20.015625 
L -5.171875 -11.71875 
L -2.09375 -11.71875 
Q 4.4375 -11.71875 7.125 -8.046875 
Q 9.8125 -4.390625 9.8125 5.078125 
z
" id="DejaVuSans-74"/>
     <path d="M 10.984375 1.515625 
L 10.984375 10.5 
Q 14.703125 8.734375 18.5 7.8125 
Q 22.3125 6.890625 25.984375 6.890625 
Q 35.75 6.890625 40.890625 13.453125 
Q 46.046875 20.015625 46.78125 33.40625 
Q 43.953125 29.203125 39.59375 26.953125 
Q 35.25 24.703125 29.984375 24.703125 
Q 19.046875 24.703125 12.671875 31.3125 
Q 6.296875 37.9375 6.296875 49.421875 
Q 6.296875 60.640625 12.9375 67.421875 
Q 19.578125 74.21875 30.609375 74.21875 
Q 43.265625 74.21875 49.921875 64.515625 
Q 56.59375 54.828125 56.59375 36.375 
Q 56.59375 19.140625 48.40625 8.859375 
Q 40.234375 -1.421875 26.421875 -1.421875 
Q 22.703125 -1.421875 18.890625 -0.6875 
Q 15.09375 0.046875 10.984375 1.515625 
z
M 30.609375 32.421875 
Q 37.25 32.421875 41.125 36.953125 
Q 45.015625 41.5 45.015625 49.421875 
Q 45.015625 57.28125 41.125 61.84375 
Q 37.25 66.40625 30.609375 66.40625 
Q 23.96875 66.40625 20.09375 61.84375 
Q 16.21875 57.28125 16.21875 49.421875 
Q 16.21875 41.5 20.09375 36.953125 
Q 23.96875 32.421875 30.609375 32.421875 
z
" id="DejaVuSans-57"/>
     <path d="M 11.71875 12.40625 
L 22.015625 12.40625 
L 22.015625 0 
L 11.71875 0 
z
M 11.71875 51.703125 
L 22.015625 51.703125 
L 22.015625 39.3125 
L 11.71875 39.3125 
z
" id="DejaVuSans-58"/>
    </defs>
    <g transform="translate(92.541875 43.192875)scale(0.12 -0.12)">
     <use xlink:href="#DejaVuSans-84"/>
     <use x="60.865234" xlink:href="#DejaVuSans-114"/>
     <use x="101.978516" xlink:href="#DejaVuSans-97"/>
     <use x="163.257812" xlink:href="#DejaVuSans-110"/>
     <use x="226.636719" xlink:href="#DejaVuSans-115"/>
     <use x="278.736328" xlink:href="#DejaVuSans-105"/>
     <use x="306.519531" xlink:href="#DejaVuSans-101"/>
     <use x="368.042969" xlink:href="#DejaVuSans-110"/>
     <use x="431.421875" xlink:href="#DejaVuSans-116"/>
     <use x="470.630859" xlink:href="#DejaVuSans-32"/>
     <use x="502.417969" xlink:href="#DejaVuSans-65"/>
     <use x="570.826172" xlink:href="#DejaVuSans-110"/>
     <use x="634.205078" xlink:href="#DejaVuSans-97"/>
     <use x="695.484375" xlink:href="#DejaVuSans-108"/>
     <use x="723.267578" xlink:href="#DejaVuSans-121"/>
     <use x="782.447266" xlink:href="#DejaVuSans-115"/>
     <use x="834.546875" xlink:href="#DejaVuSans-105"/>
     <use x="862.330078" xlink:href="#DejaVuSans-115"/>
     <use x="914.429688" xlink:href="#DejaVuSans-44"/>
     <use x="946.216797" xlink:href="#DejaVuSans-32"/>
     <use x="978.003906" xlink:href="#DejaVuSans-77"/>
     <use x="1064.283203" xlink:href="#DejaVuSans-111"/>
     <use x="1125.464844" xlink:href="#DejaVuSans-110"/>
     <use x="1188.84375" xlink:href="#DejaVuSans-32"/>
     <use x="1220.630859" xlink:href="#DejaVuSans-74"/>
     <use x="1250.123047" xlink:href="#DejaVuSans-117"/>
     <use x="1313.501953" xlink:href="#DejaVuSans-110"/>
     <use x="1376.880859" xlink:href="#DejaVuSans-32"/>
     <use x="1408.667969" xlink:href="#DejaVuSans-32"/>
     <use x="1440.455078" xlink:href="#DejaVuSans-49"/>
     <use x="1504.078125" xlink:href="#DejaVuSans-32"/>
     <use x="1535.865234" xlink:href="#DejaVuSans-49"/>
     <use x="1599.488281" xlink:href="#DejaVuSans-57"/>
     <use x="1663.111328" xlink:href="#DejaVuSans-58"/>
     <use x="1696.802734" xlink:href="#DejaVuSans-52"/>
     <use x="1760.425781" xlink:href="#DejaVuSans-56"/>
     <use x="1824.048828" xlink:href="#DejaVuSans-58"/>
     <use x="1857.740234" xlink:href="#DejaVuSans-48"/>
     <use x="1921.363281" xlink:href="#DejaVuSans-54"/>
     <use x="1984.986328" xlink:href="#DejaVuSans-32"/>
     <use x="2016.773438" xlink:href="#DejaVuSans-32"/>
     <use x="2048.560547" xlink:href="#DejaVuSans-50"/>
     <use x="2112.183594" xlink:href="#DejaVuSans-48"/>
     <use x="2175.806641" xlink:href="#DejaVuSans-50"/>
     <use x="2239.429688" xlink:href="#DejaVuSans-48"/>
    </g>
   </g>
  </g>
 </g>
 <defs>
  <clipPath id="p47786d915a">
   <rect height="266.112" width="357.12" x="52.160938" y="49.192875"/>
  </clipPath>
 </defs>
</svg>
