<?xml version="1.0" encoding="UTF-8" standalone="no"?>
<svg xmlns:dc="http://purl.org/dc/elements/1.1/" 
   xmlns:cc="http://creativecommons.org/ns#" 
   xmlns:rdf="http://www.w3.org/1999/02/22-rdf-syntax-ns#" 
   xmlns:svg="http://www.w3.org/2000/svg" 
   xmlns="http://www.w3.org/2000/svg" 
   xmlns:sodipodi="http://sodipodi.sourceforge.net/DTD/sodipodi-0.dtd" 
   xmlns:inkscape="http://www.inkscape.org/namespaces/inkscape" id="Capa_1" enable-background="new 0 0 512 512" height="512" viewBox="0 0 512 512" width="512" version="1.1" sodipodi:docname="spyci.svg" inkscape:version="0.92.3 (2405546, 2018-03-11)">
   <metadata id="metadata63">
      <rdf:RDF>
         <cc:Work rdf:about="">
            <dc:format>image/svg+xml</dc:format>
            <dc:type rdf:resource="http://purl.org/dc/dcmitype/StillImage" />
            <dc:title></dc:title>
         </cc:Work>
      </rdf:RDF>
   </metadata>
   <defs id="defs61" />
   <sodipodi:namedview pagecolor="#ffffff" bordercolor="#666666" borderopacity="1" objecttolerance="10" gridtolerance="10" guidetolerance="10" inkscape:pageopacity="0" inkscape:pageshadow="2" inkscape:window-width="2560" inkscape:window-height="1389" id="namedview59" showgrid="false" fit-margin-top="0" fit-margin-left="0" fit-margin-right="0" fit-margin-bottom="0" inkscape:zoom="0.4609375" inkscape:cx="377.49152" inkscape:cy="353.79648" inkscape:window-x="0" inkscape:window-y="24" inkscape:window-maximized="0" inkscape:current-layer="Capa_1" />
   <g id="g898" transform="scale(1,1.1447626)" inkscape:export-xdpi="48" inkscape:export-ydpi="48">
      <g transform="translate(0,-32.372699)" id="g56">
         <g id="g30">
            <g id="g14">
               <g id="g6">
                  <path style="fill:#ffe4dc" inkscape:connector-curvature="0" id="path2" d="M 35.813,344.112 C 21.557,344.112 10,355.669 10,369.925 v 0.342 c 0,14.256 11.557,25.813 25.813,25.813 h 70.548 v -51.968 z" />
                  <path style="fill:#ffad95" inkscape:connector-curvature="0" id="path4" d="m 106.361,344.112 h 53.477 v 51.968 h -53.477 z" />
               </g>
               <g id="g12">
                  <g id="g10">
                     <path style="fill:#a7bdcd" inkscape:connector-curvature="0" id="path8" d="m 310.174,469.625 h -50.794 0.477 c -33.743,0 -61.098,-27.354 -61.098,-61.098 V 368.574 H 502 v 39.953 c 0,33.743 -27.354,61.098 -61.098,61.098 h 0.477 -40.793" />
                  </g>
               </g>
            </g>
            <g id="g28">
               <path style="fill:#ff9c9b" inkscape:connector-curvature="0" id="path16" d="m 311.444,237.896 75.15,-75.15 18.184,18.184 c 10.286,10.286 10.286,26.963 0,37.248 l -37.902,37.902 c -10.286,10.286 -26.963,10.286 -37.248,0 z" />
               <g id="g26">
                  <g id="g20">
                     <path style="fill:#faf7f5" inkscape:connector-curvature="0" id="path18" d="m 300.316,91.691 c -16.548,16.548 -18.814,41.113 -5.06,54.867 l 0.74,0.74 c 13.754,13.754 11.488,38.319 -5.06,54.867 -3.771,3.771 -7.959,6.801 -12.341,9.068 l 39.54,19.972 61.768,-61.768 -46.361,-91.786 c -11.323,-0.355 -23.624,4.438 -33.226,14.04 z" />
                  </g>
                  <g id="g24">
                     <path style="fill:#e2e9ee" inkscape:connector-curvature="0" id="path22" d="m 278.596,211.232 c 4.381,-2.267 8.569,-5.296 12.341,-9.068 16.548,-16.548 18.814,-41.113 5.06,-54.867 l -0.74,-0.74 c -13.754,-13.754 -11.488,-38.319 5.06,-54.867 9.602,-9.602 21.903,-14.395 33.225,-14.04 l -3.645,-7.216 C 314.225,39.407 272.803,32.771 248.224,57.351 L 206.05,99.525 c -24.58,24.58 -17.944,66.001 13.083,81.673 z" />
                  </g>
               </g>
            </g>
         </g>
         <g id="g54">
            <path inkscape:connector-curvature="0" id="path32" d="m 333.541,327.74 c -5.522,0 -10,-4.477 -10,-10 v -9.191 c 0,-5.523 4.478,-10 10,-10 5.522,0 10,4.477 10,10 v 9.191 c 0,5.523 -4.478,10 -10,10 z" />
            <g id="g36">
               <path inkscape:connector-curvature="0" id="path34" d="m 423.213,292.2 c -5.522,0 -10,-4.477 -10,-10 v -9.192 c 0,-5.523 4.478,-10 10,-10 5.522,0 10,4.477 10,10 v 9.192 c 0,5.523 -4.478,10 -10,10 z" />
            </g>
            <g id="g40">
               <path inkscape:connector-curvature="0" id="path38" d="m 409.937,336.163 c -5.522,0 -10,-4.477 -10,-10 v -9.191 c 0,-5.523 4.478,-10 10,-10 5.522,0 10,4.477 10,10 v 9.191 c 0,5.523 -4.478,10 -10,10 z" />
            </g>
            <g id="g44">
               <path inkscape:connector-curvature="0" id="path42" d="m 374.702,313.953 c -5.522,0 -10,-4.477 -10,-10 v -9.191 c 0,-5.523 4.478,-10 10,-10 5.522,0 10,4.477 10,10 v 9.191 c 0,5.522 -4.477,10 -10,10 z" />
            </g>
            <path inkscape:connector-curvature="0" id="path46" d="m 411.849,173.857 -18.184,-18.184 c -2.882,-2.881 -7.082,-3.636 -10.656,-2.266 L 338.822,65.926 C 329.889,48.24 313.546,36.3 293.981,33.166 274.419,30.033 255.163,36.27 241.152,50.28 l -42.174,42.174 c -14.01,14.01 -20.248,33.266 -17.113,52.83 3.134,19.563 15.074,35.907 32.759,44.839 l 87.481,44.187 c -1.37,3.574 -0.614,7.775 2.267,10.656 l 18.184,18.184 c 7.085,7.084 16.39,10.626 25.695,10.626 9.305,0 18.611,-3.542 25.696,-10.626 l 37.901,-37.901 c 6.863,-6.863 10.644,-15.989 10.644,-25.695 0,-9.706 -3.78,-18.833 -10.643,-25.697 z m -108.78,-33.628 -0.741,-0.742 c -4.513,-4.513 -6.625,-11.046 -5.947,-18.396 0.741,-8.043 4.65,-15.973 11.007,-22.329 5.734,-5.733 12.99,-9.532 20.196,-10.726 l 40.129,79.448 -51.531,51.531 -18.574,-9.382 c 0.134,-0.132 0.267,-0.264 0.4,-0.396 20.42,-20.422 22.69,-51.38 5.061,-69.008 z m -101.456,1.891 c -2.107,-13.155 2.087,-26.104 11.508,-35.524 l 42.174,-42.174 c 7.822,-7.823 18.076,-12.042 28.862,-12.042 2.203,0 4.43,0.176 6.661,0.534 11.144,1.785 20.734,7.82 27.058,16.852 -8.995,2.663 -17.525,7.748 -24.631,14.853 -9.651,9.651 -15.61,21.951 -16.779,34.635 -1.233,13.375 2.929,25.584 11.718,34.373 l 0.741,0.742 c 9.833,9.833 7.563,28.102 -5.059,40.724 -1.769,1.768 -3.664,3.351 -5.669,4.735 l -54.556,-27.556 c -11.892,-6.007 -19.92,-16.997 -22.028,-30.152 z m 196.093,68.986 -37.901,37.901 c -6.37,6.37 -16.734,6.372 -23.106,0 L 325.587,237.895 386.595,176.887 397.706,188 c 3.086,3.086 4.786,7.189 4.786,11.553 0,4.364 -1.7,8.467 -4.786,11.553 z" />
            <g id="g50">
               <path inkscape:connector-curvature="0" id="path48" d="m 355.56,479.627 c -4.182,0 -7.995,-2.709 -9.405,-6.636 -1.391,-3.874 -0.2,-8.32 2.936,-10.987 3.271,-2.781 8.098,-3.142 11.745,-0.873 3.497,2.175 5.339,6.404 4.534,10.446 -0.919,4.614 -5.103,8.05 -9.81,8.05 z" />
            </g>
            <path inkscape:connector-curvature="0" id="path52" d="M 502,358.575 H 169.838 v -14.463 c 0,-5.523 -4.478,-10 -10,-10 H 35.813 C 16.065,334.112 0,350.177 0,369.925 v 0.342 c 0,19.748 16.065,35.813 35.813,35.813 h 124.024 c 5.522,0 10,-4.477 10,-10 v -17.505 h 18.921 v 29.953 c 0,38.95 31.479,70.685 70.334,71.094 0.096,0.002 0.191,0.004 0.287,0.004 h 50.794 c 5.522,0 10,-4.477 10,-10 0,-5.523 -4.478,-10 -10,-10 h -50.317 c -28.176,0 -51.098,-22.922 -51.098,-51.098 V 378.575 H 492 v 29.953 c 0,28.175 -22.922,51.098 -51.098,51.098 h -40.316 c -5.522,0 -10,4.477 -10,10 0,5.523 4.478,10 10,10 h 40.793 c 0.096,0 0.191,-10e-4 0.287,-0.004 C 480.521,479.212 512,447.477 512,408.527 v -39.953 c 0,-5.522 -4.478,-9.999 -10,-9.999 z M 20,370.266 v -0.342 c 0,-8.719 7.094,-15.813 15.813,-15.813 h 60.548 v 31.968 H 35.813 C 27.094,386.08 20,378.986 20,370.266 Z m 129.838,15.814 h -33.477 v -31.968 h 33.477 z" />
         </g>
      </g>
   </g>
</svg>
